<svg version="1.1" id="covi-logo" xmlns="http://www.w3.org/2000/svg" xmlns:xlink="http://www.w3.org/1999/xlink" x="0px" y="0px" viewBox="0 0 452.77 124.85" style="enable-background:new 0 0 452.77 124.85;" xml:space="preserve">
<path style="fill:#82817D;" d="M198.91,124.85c-12.76,0-25.02-3.82-35.47-11.06c-16.87-11.66-26.94-30.85-26.94-51.34
	c0-20.48,10.07-39.68,26.94-51.35c10.45-7.23,22.71-11.06,35.47-11.06c34.4,0,62.39,27.99,62.39,62.4
	C261.3,96.86,233.31,124.85,198.91,124.85z M198.91,8.38c-11.05,0-21.68,3.31-30.73,9.58c-14.62,10.11-23.35,26.75-23.35,44.5
	c0,17.75,8.73,34.38,23.34,44.49c9.05,6.27,19.68,9.58,30.73,9.58c29.81,0,54.06-24.25,54.06-54.06
	C252.97,32.64,228.72,8.38,198.91,8.38z"/>
<rect x="444.93" style="fill:#82817D;" width="7.84" height="124.85"/>
<path style="fill:#625F5A;" d="M277.92,33.99c0.06-0.01,0.12-0.02,0.17-0.03c3.22,0.01,6.45,0.02,9.67,0.02
	c0.16,0.27,0.28,0.56,0.48,0.8c4.65,5.82,9.3,11.65,13.97,17.46c13.46,16.76,26.93,33.51,40.4,50.27c1.8,2.23,3.6,4.46,5.45,6.73
	c3.44-4.27,6.79-8.45,10.15-12.63c13.05-16.23,26.1-32.46,39.14-48.7c3.65-4.55,7.26-9.14,10.89-13.71c3.26,0,6.53,0,9.79,0.01
	c-2.15,2.81-4.29,5.64-6.46,8.43c-16.6,21.3-33.21,42.59-49.82,63.88c-2.4,3.08-4.79,6.16-7.2,9.24c-0.26,0.33-0.6,0.61-0.9,0.91
	c-1.86-2.4-3.73-4.8-5.69-7.31c-1.44,1.83-2.73,3.51-4.07,5.14c-0.56,0.68-1.24,1.25-1.86,1.87
	c-7.76-9.95-15.52-19.89-23.28-29.84c-13.39-17.15-26.79-34.3-40.18-51.46C278.32,34.74,278.14,34.35,277.92,33.99z"/>
<path style="fill:#82817D;" d="M418.03,34.21c-3.26,0-6.53,0-9.8-0.01c-0.05,0-0.1,0-0.16,0c-0.91-1.22-1.8-2.47-2.74-3.67
	c-5.71-7.19-11.44-14.37-17.14-21.57c-0.48-0.6-0.98-0.9-1.78-0.89c-2.84,0.01-5.67-0.12-8.51-0.11
	c-22.83,0.03-45.66,0.08-68.49,0.17c-0.49,0-1.11,0.36-1.44,0.75c-1.48,1.74-2.87,3.56-4.29,5.35
	c-5.22,6.58-10.44,13.15-15.66,19.73c-0.09,0.01-0.17,0.02-0.26,0.03c-3.22-0.01-6.45-0.02-9.67-0.02
	c3.29-4.18,6.58-8.36,9.88-12.53c5.37-6.76,10.77-13.5,16.13-20.28c0.46-0.58,0.92-0.93,1.67-0.84c0.19,0.02,0.39-0.01,0.59-0.01
	c15.14-0.08,30.28-0.18,45.43-0.22c8.68-0.02,17.35,0.06,26.03,0.11c3.98,0.02,7.96,0.1,11.94,0.09c1.08,0,1.78,0.33,2.46,1.21
	c8.41,10.64,16.88,21.24,25.33,31.85c0.17,0.22,0.37,0.41,0.55,0.62C418.08,34.04,418.05,34.12,418.03,34.21z"/>
<path style="fill:#6A98A0;" d="M342.04,116.37c0.62-0.62,4.48-5.18,5.93-7.01c1.96,2.52,3.82,4.91,5.69,7.31
	c-1.82,2.6-3.64,5.2-5.62,8.02C345.96,121.8,344,119.08,342.04,116.37z"/>
<path style="fill:#DDA492;" d="M287.76,33.98c0.09-0.01,0.17-0.02,0.26-0.03c0.29,0.08,0.58,0.24,0.87,0.24
	c3.68,0.01,7.35-0.01,11.03-0.02c0.16,0.01,0.32,0.02,0.47,0.02c31.24,0,62.48,0,93.72-0.01c4.66,0.01,9.31,0.01,13.97,0.02
	c0.05,0,0.1,0,0.16,0c-3.63,4.57-7.24,9.15-10.89,13.71c-13.04,16.24-26.09,32.47-39.14,48.7c-3.36,4.18-6.72,8.36-10.15,12.63
	c-1.84-2.28-3.65-4.5-5.45-6.73c-13.47-16.75-26.94-33.51-40.4-50.27c-4.67-5.81-9.32-11.64-13.97-17.46
	C288.05,34.53,287.92,34.24,287.76,33.98z M399,40.59c-0.96-1.72-2.09-2.44-4.04-2.44c-30.23,0.07-60.46,0.05-90.69,0.05
	c-0.45,0-0.89,0-1.59,0c6.37,7.9,12.55,15.56,18.73,23.23c0.28-1.35,1.12-2.56,0.17-3.74c-3.16-3.89-6.32-7.76-9.48-11.65
	c-1.43-1.76-2.84-3.53-4.39-5.45C338.26,40.59,368.56,40.59,399,40.59z"/>
<path style="fill:#F5E2DC;" d="M299.92,34.16c-3.68,0.01-7.35,0.03-11.03,0.02c-0.29,0-0.58-0.16-0.87-0.24
	c5.22-6.58,10.44-13.15,15.66-19.73c1.42-1.79,2.82-3.6,4.29-5.35c0.33-0.39,0.95-0.75,1.44-0.75
	c22.83-0.08,45.66-0.13,68.49-0.17c2.84,0,5.67,0.12,8.51,0.11c0.81,0,1.31,0.29,1.78,0.89c5.71,7.2,11.43,14.38,17.14,21.57
	c0.95,1.2,1.83,2.44,2.74,3.67c-4.66-0.01-9.31-0.01-13.97-0.02c-0.12-0.24-0.19-0.51-0.35-0.72c-1.56-1.97-3.14-3.93-4.72-5.9
	c-3.76-4.7-7.51-9.4-11.28-14.09c-0.68-0.84-1.42-1.64-2.33-2.67c-0.28,1.7-1.01,3.07,0.41,4.32c0.61,0.54,1.09,1.24,1.61,1.88
	c2.92,3.61,5.84,7.22,8.75,10.83c0.99,1.23,1.96,2.49,3.14,3.99c-30.6,0-60.86,0-91.42,0C298.72,32.75,299.32,33.45,299.92,34.16z
	"/>
<path style="fill:#FFFFFF;" d="M399,40.59c-30.45,0-60.75,0-91.3,0c1.55,1.93,2.96,3.69,4.39,5.45
	c3.16,3.89,6.32,7.76,9.48,11.65c0.96,1.18,0.12,2.39-0.17,3.74c-6.18-7.66-12.36-15.33-18.73-23.23c0.7,0,1.15,0,1.59,0
	c30.23,0,60.46,0.02,90.69-0.05C396.92,38.14,398.04,38.87,399,40.59z"/>
<path style="fill:#FFFFFF;stroke:#FFFFFF;stroke-width:0.4255;stroke-miterlimit:10;" d="M299.92,34.16c-0.6-0.71-1.2-1.41-2-2.34
	c30.55,0,60.81,0,91.42,0c-1.18-1.5-2.14-2.76-3.14-3.99c-2.91-3.62-5.83-7.22-8.75-10.83c-0.52-0.64-1-1.34-1.61-1.88
	c-1.42-1.25-0.7-2.61-0.41-4.32c0.91,1.04,1.65,1.83,2.33,2.67c3.77,4.69,7.52,9.39,11.28,14.09c1.57,1.97,3.15,3.93,4.72,5.9
	c0.16,0.2,0.24,0.48,0.35,0.72c-31.24,0-62.48,0-93.72,0.01C300.23,34.18,300.08,34.17,299.92,34.16z"/>
<path style="fill:#82817D;" d="M62.4,124.85C27.99,124.85,0,96.86,0,62.45C0,28.04,27.99,0.05,62.4,0.05
	c11.94,0,23.52,3.37,33.51,9.76l2.31,1.48l-5.11,6.6l-1.93-1.22C82.6,11.25,72.64,8.38,62.4,8.38c-29.81,0-54.06,24.26-54.06,54.07
	c0,29.81,24.25,54.06,54.06,54.06c10.26,0,20.21-2.86,28.78-8.28l1.93-1.22l5.13,6.59l-2.32,1.48
	C85.95,121.48,74.36,124.85,62.4,124.85z"/>
</svg>
