<?xml version="1.0" encoding="utf-8"?>
<!-- Generator: Adobe Illustrator 19.0.1, SVG Export Plug-In . SVG Version: 6.00 Build 0)  -->
<svg version="1.1" id="Layer_1" xmlns="http://www.w3.org/2000/svg" xmlns:xlink="http://www.w3.org/1999/xlink" x="0px" y="0px"
	 viewBox="0 0 400 400" style="enable-background:new 0 0 400 400;" xml:space="preserve">
<g id="Study_Hall_1_">
	<polygon style="fill:#615D58;stroke:#F5F5F5;stroke-width:2;stroke-miterlimit:10;" points="281.34,203.45 281.2,203.45 
		244.29,267.43 280.82,330.66 317.86,266.73 	"/>
	<polygon style="fill:#827F7B;stroke:#F5F5F5;stroke-width:2;stroke-miterlimit:10;" points="280.82,330.66 281.24,331.37 
		355.09,331.35 355.13,331.29 317.86,266.73 	"/>
	<polygon style="fill:#999692;stroke:#F5F5F5;stroke-width:2;stroke-miterlimit:10;" points="354.54,203.43 281.34,203.45 
		317.86,266.73 	"/>
	<polygon style="fill:#BBBAB6;stroke:#F5F5F5;stroke-width:2;stroke-miterlimit:10;" points="355.05,203.43 354.54,203.43 
		317.86,266.73 355.13,331.29 392,267.38 	"/>
	<polygon style="display:none;fill:#CFCECE;stroke:#F5F5F5;stroke-width:2;stroke-miterlimit:10;" points="349.61,321.33 
		287.58,321.46 256.45,267.81 287.35,214.03 349.37,213.9 380.5,267.55 	"/>
	
		<ellipse style="display:none;opacity:0.52;fill:none;stroke:#F5F5F5;stroke-width:2;stroke-miterlimit:10;" cx="306.16" cy="278.61" rx="22.8" ry="21.86"/>
	
		<ellipse style="display:none;opacity:0.52;fill:none;stroke:#F5F5F5;stroke-width:2;stroke-miterlimit:10;" cx="319.17" cy="259.79" rx="22.8" ry="21.86"/>
	
		<ellipse style="display:none;opacity:0.52;fill:none;stroke:#F5F5F5;stroke-width:2;stroke-miterlimit:10;" cx="332.34" cy="278.62" rx="22.8" ry="21.86"/>
</g>
<g id="About">
	<polygon style="fill:#827F7B;stroke:#F7F4F2;stroke-width:2;stroke-miterlimit:10;" points="44.64,70.79 44.49,70.79 8,134.04 
		44.12,196.56 80.74,133.35 	"/>
	<polygon style="fill:#615D58;stroke:#F7F4F2;stroke-width:2;stroke-miterlimit:10;" points="44.12,196.56 44.53,197.27 
		117.55,197.25 117.59,197.19 80.74,133.35 	"/>
	<polygon style="fill:#66635B;stroke:#F7F4F2;stroke-width:2;stroke-miterlimit:10;" points="117.01,70.77 44.64,70.79 
		80.74,133.35 	"/>
	<polygon style="fill:#999692;stroke:#F7F4F2;stroke-width:2;stroke-miterlimit:10;" points="117.51,70.77 117.01,70.77 
		80.74,133.35 117.59,197.19 154.04,133.99 	"/>
	<polygon style="display:none;fill:#3F403F;stroke:#F7F4F2;stroke-width:2;stroke-miterlimit:10;" points="112.21,187.19 
		50.89,187.32 20.11,134.28 50.66,81.11 111.98,80.98 142.76,134.02 	"/>
</g>
<g>
	<polygon style="fill:#FFFFFF;stroke:#817F7B;stroke-width:3;stroke-miterlimit:10;" points="236.24,130.5 163.34,130.26 
		127.1,67.01 163.76,4 236.66,4.24 272.9,67.49 	"/>
	<line style="fill:none;stroke:#BBBAB6;stroke-width:2;stroke-miterlimit:10;" x1="163.76" y1="4" x2="236.24" y2="130.5"/>
	<polyline style="fill:none;stroke:#BBBAB6;stroke-miterlimit:10;" points="236.66,4.24 200.14,67.49 272.9,67.49 	"/>
	<polyline style="fill:none;stroke:#BBBAB6;stroke-miterlimit:10;" points="199.94,4.24 199.94,86.61 199.94,130.38 	"/>
</g>
<g>
	<polygon style="fill:#FFFFFF;stroke:#817F7B;stroke-width:3;stroke-miterlimit:10;" points="236.34,263 163.45,262.76 
		127.21,199.51 163.86,136.5 236.76,136.74 273,199.99 	"/>
	<polygon style="fill:none;stroke:#BAB9B5;stroke-width:2;stroke-miterlimit:10;" points="163.86,136.5 273,199.99 163.45,262.76 	
		"/>
	<line style="fill:none;stroke:#808080;stroke-miterlimit:10;" x1="236.76" y1="136.74" x2="218.22" y2="168.12"/>
	<line style="fill:none;stroke:#808080;stroke-miterlimit:10;" x1="236.34" y1="263" x2="218.22" y2="231.37"/>
	<line style="fill:none;stroke:#808080;stroke-miterlimit:10;" x1="127.21" y1="199.51" x2="163.45" y2="199.51"/>
	<polygon style="fill:none;stroke:#808080;stroke-width:0.5;stroke-miterlimit:10;stroke-dasharray:8;" points="163.45,262.76 
		227.49,247.55 273,199.99 227.28,152.43 163.86,136.5 145.42,199.99 	"/>
	<polyline style="fill:none;stroke:#BBBAB6;stroke-miterlimit:10;" points="163.86,136.5 200.3,196.55 163.45,262.76 	"/>
	<line style="fill:none;stroke:#BBBAB6;stroke-miterlimit:10;" x1="273" y1="199.99" x2="200.3" y2="196.55"/>
</g>
<g>
	<polygon style="fill:#FFFFFF;stroke:#817F7B;stroke-width:3;stroke-miterlimit:10;" points="236.17,396 163.27,395.76 
		127.03,332.51 163.68,269.5 236.58,269.74 272.82,332.99 	"/>
	<polygon style="fill:none;stroke:#BAB9B5;stroke-width:2;stroke-miterlimit:10;" points="163.68,269.5 199.93,332.75 236.17,396 
		236.58,269.74 163.27,395.76 	"/>
	<polygon style="fill:none;stroke:#808080;stroke-width:0.5;stroke-miterlimit:10;stroke-dasharray:8;" points="199.93,396 
		199.93,269.5 272.82,332.99 	"/>
	<polyline style="fill:none;stroke:#BBBAB6;stroke-miterlimit:10;" points="199.93,396 127.03,332.51 199.93,269.5 	"/>
	<line style="fill:none;stroke:#BBBAB6;stroke-miterlimit:10;" x1="127.03" y1="332.51" x2="272.82" y2="332.99"/>
</g>
<path style="fill:none;stroke:#808080;stroke-miterlimit:10;" d="M249.29,130.1"/>
<g>
	<polygon style="fill:#FFFFFF;stroke:#817F7B;stroke-width:3;stroke-miterlimit:10;" points="355.34,197.27 282.45,197.03 
		246.21,133.78 282.86,70.77 355.76,71.01 392,134.26 	"/>
	<polyline style="fill:none;stroke:#BBBAB6;stroke-width:2;stroke-miterlimit:10;" points="355.76,71.01 319.1,134.02 
		246.21,133.78 	"/>
	<line style="fill:none;stroke:#BBBAB6;stroke-miterlimit:10;" x1="319.1" y1="134.02" x2="355.34" y2="197.27"/>
</g>
<g>
	<polygon style="fill:#FFFFFF;stroke:#817F7B;stroke-width:3;stroke-miterlimit:10;" points="116.98,328.01 44.09,327.77 
		7.85,264.52 44.5,201.51 117.4,201.75 153.64,265 	"/>
	<polygon style="fill:none;stroke:#BBBAB6;stroke-miterlimit:10;" points="7.85,264.52 81.02,201.63 153.64,265 83.15,327.9 	"/>
	<polygon style="fill:none;stroke:#BBBAB6;stroke-miterlimit:10;" points="117.4,201.75 27.85,230.13 44.09,327.77 134.57,297.78 	
		"/>
	<polygon style="fill:none;stroke:#BBBAB6;stroke-miterlimit:10;" points="44.5,201.51 23.82,292.4 83.15,327.9 134.57,297.78 
		127.32,219.06 	"/>
</g>
<path style="fill:none;stroke:#808080;stroke-width:0.5;stroke-miterlimit:10;stroke-dasharray:8;" d="M285.53,193.35"/>
<path style="fill:none;stroke:#808080;stroke-width:0.5;stroke-miterlimit:10;stroke-dasharray:8;" d="M285.53,193.35"/>
</svg>
