<?xml version="1.0" encoding="utf-8"?>
<!-- Generator: Adobe Illustrator 19.0.1, SVG Export Plug-In . SVG Version: 6.00 Build 0)  -->
<svg version="1.1" id="Layer_1" xmlns="http://www.w3.org/2000/svg" xmlns:xlink="http://www.w3.org/1999/xlink" x="0px" y="0px"
	 viewBox="0 0 74.07 124.55" style="enable-background:new 0 0 74.07 124.55;" xml:space="preserve">
<g>
	<path style="fill:none;stroke:#C18876;stroke-width:3;stroke-miterlimit:10;" d="M20.32,87.36c0,0,5.47,11.58,14.79,11.58
		c8.36,0,11.25-4.98,11.25-12.7c0-7.56-3.22-13.99-9.97-13.99h-7.88V52.31h7.88c6.75,0,9.97-6.43,9.97-13.99
		c0-7.72-2.89-12.7-11.25-12.7c-9.33,0-14.79,11.58-14.79,11.58L1.83,23.53c0,0,9-22.03,34.25-22.03c27.17,0,36.5,16.72,36.5,34.41
		c0,16.08-7.23,23.47-10.93,26.37c3.54,2.73,10.93,9.81,10.93,26.05c0,17.69-9.33,34.73-36.5,34.73
		c-25.24,0-34.25-22.03-34.25-22.03L20.32,87.36z"/>
</g>
</svg>
