<?xml version="1.0" encoding="iso-8859-1"?>
<!-- Generator: Adobe Illustrator 19.1.0, SVG Export Plug-In . SVG Version: 6.00 Build 0)  -->
<svg version="1.1" id="Layer_1" xmlns="http://www.w3.org/2000/svg" xmlns:xlink="http://www.w3.org/1999/xlink" x="0px" y="0px"
	 viewBox="0 0 185 62.723" style="enable-background:new 0 0 185 62.723;" xml:space="preserve">
<g id="V9wxFc.tif_1_">
	<g>
		<path style="fill:#FFFFFF;" d="M0,62.723C0,41.815,0,20.908,0,0c60.043,0,120.085,0,180.128,0c0,20.908,0,41.815,0,62.723
			C120.085,62.723,60.043,62.723,0,62.723z M150.375,48.249c0,0.268,0,0.536,0,0.804c-1.487,0.576-0.711,1.532-0.506,2.295
			c0.985,0,1.869,0,2.671,0c0.393-0.905,0.731-1.682,1.062-2.444c-0.505-1.021-1.211-1.664-2.423-1.459
			C150.911,47.713,150.643,47.981,150.375,48.249z M85.239,47.444c-0.268,0-0.536,0-0.804,0c-2.351-1.274-4.785-1.004-7.233-0.372
			c-0.031,0.008-0.004,0.243-0.004,0.372c0,0.536,0,1.072,0,1.608c-1.492,0.827-0.553,2.044-0.864,3.292
			c1.34-0.64,1.865-1.36,1.668-2.488c0.536-0.536,1.072-1.072,1.608-1.608c0.268,0.203,0.565,0.377,0.797,0.615
			c0.298,0.305,0.543,0.66,0.811,0.993c-0.268,0.268-0.536,0.536-0.804,0.804c-0.268,0.268-0.536,0.536-0.804,0.804
			c0.185,0.268,0.424,0.79,0.546,0.764c0.903-0.193,1.783-0.496,2.671-0.764c0.268,0,0.536,0,0.804,0
			c1.369-0.11,2.947,0.529,4.029-1.33c-0.625-0.67,0.965-2.071-0.812-2.691C86.311,47.444,85.775,47.444,85.239,47.444z
			 M172.087,52.269c-0.268,0.268-0.536,0.536-0.804,0.804c1.017,1.088,2.199,1.088,3.217,0c0.421-0.892,0.95-1.682,0.872-2.814
			c-0.058-0.839,0.502-1.72,0.842-2.753c-1.529,0-2.676,0-3.772,0c-0.418,0.41-0.791,0.777-1.381,1.356
			c0.315,0.8,0.671,1.701,1.026,2.602C172.087,51.733,172.087,52.001,172.087,52.269z M164.849,49.857
			c-0.078-0.778-0.156-1.555-0.234-2.333c-0.19,0.02-0.38,0.04-0.57,0.059c0,0.758,0,1.516,0,2.273
			c-1.129,0.2-0.939,0.821-0.404,1.689C164.077,50.937,164.463,50.397,164.849,49.857z M57.898,45.836
			c-1.203,0.069-0.683,0.999-0.804,1.608c0,0.649,0,1.298,0,2.045c-0.512,0.436-1.059,0.902-1.868,1.591
			c-0.452-0.756-0.782-1.308-1.055-1.764c0.134-0.492,0.322-1.182,0.511-1.872c-0.091-0.509-0.182-1.018-0.272-1.528
			c-0.177,0.019-0.355,0.039-0.532,0.058c0,0.49,0,0.98,0,1.47c-1.664,1.146-0.445,2.626-0.785,3.947c1.467,0,2.608,0,3.105,0
			c2.119-0.71,1.64-2.019,1.701-3.142c1.203-0.069,0.683-0.999,0.804-1.608C58.434,46.372,58.166,46.104,57.898,45.836z
			 M111.776,52.269c-1.179,0.235-0.959,0.861-0.457,1.569c0.139,0.014,0.277,0.07,0.381,0.032c0.819-0.3,2.075,0.755,2.488-0.797
			c1.549-0.377,0.498-1.621,0.804-2.412c1.47-0.864,0.615-2.064,0.795-3.539c-1.526,0.811-3.069-0.502-4.012,1.127
			c-0.314,0.607-0.628,1.214-0.999,1.931c0.675,0.481,1.239,0.883,1.803,1.285C112.312,51.733,112.044,52.001,111.776,52.269z
			 M120.622,47.444c-0.268,0-0.536,0-0.804,0c-0.736,0-1.473,0-2.266,0c-0.35,1.183-0.65,2.2-0.951,3.217
			c0.268,0.268,0.536,0.536,0.804,0.804c0.268-0.331,0.761-0.66,0.764-0.994c0.01-1.195,0.519-1.911,1.649-2.223
			c0,0.536,0,1.072,0,1.608c0.091,0.509,0.182,1.018,0.272,1.528c0.177-0.019,0.354-0.039,0.532-0.058c0-0.49,0-0.98,0-1.47
			C121.723,49.048,121.723,48.253,120.622,47.444z M106.951,51.465c1.102-0.809,1.102-1.604,0-2.412
			c0.525-0.414,1.05-0.827,1.574-1.24c-0.369-0.369-0.744-0.744-1.103-1.103c-0.712,0.419-1.42,0.835-2.247,1.322
			c0.508,0.583-0.43,1.723,0.972,1.825c0,0.268,0,0.536,0,0.804c-0.478,0-0.956,0-1.631,0c0.075,0.685,0.123,1.124,0.169,1.539
			C106.073,52.223,106.072,52.193,106.951,51.465z M156.004,49.053c0.524-0.417,1.048-0.834,1.61-1.281
			c-0.884-0.231-1.842-1.011-2.414,0.477c-1.492,0.827-0.553,2.044-0.405,3.174C155.198,50.633,155.601,49.843,156.004,49.053z
			 M73.177,50.661c-0.268,0-0.536,0-0.804,0c0.513-1.87,2.389-0.001,3.126-1.097c0-0.673,0-1.286,0-2.049
			c-1.449-0.174-2.762-0.197-3.93,0.734c-0.383-0.306-0.767-0.612-1.608-1.284c0,1.108,0,1.598,0,2.088
			c-0.462,0.23-0.924,0.461-1.608,0.802c0-0.958,0-1.685,0-2.411c-0.088-0.222-0.177-0.445-0.265-0.667
			c-0.18,0.222-0.36,0.445-0.539,0.667c-0.268-0.268-0.536-0.536-0.804-0.804c-0.121-0.61,0.399-1.54-0.804-1.608
			c-1.549,0.377-0.498,1.621-0.804,2.412c0.102,1.167-0.068,2.259-0.782,3.24c-0.075,0.103,0.163,0.434,0.276,0.707
			c0.339,0,0.697,0,1.31,0c0-0.828,0-1.583,0-2.339c0.536,0,1.072,0,1.608,0c0.086,0.816,0.171,1.633,0.335,3.188
			c1.015-1.165,1.547-1.774,2.078-2.384c0.268-0.333,0.514-0.689,0.811-0.993c0.232-0.238,0.529-0.412,0.797-0.615
			c0,0.757-0.083,1.527,0.036,2.265c0.056,0.349,0.5,0.636,0.768,0.951c1.54,1.011,1.54,1.011,3.189-0.804
			C74.649,50.661,73.913,50.661,73.177,50.661z M135.096,50.661c-0.343-1.281,0.695-1.826,1.352-2.584
			c0.082-0.095-0.031-0.358-0.069-0.666c-0.705,0.07-1.41,0.141-2.087,0.208c0,0.931,0,1.584,0,2.238
			c-1.503,0.479-0.644,1.473-0.586,2.732C134.321,51.736,134.708,51.199,135.096,50.661z M132.684,50.661c0-1.006,0-2.012,0-3.217
			c-1.204,0-2.21,0-3.217,0c-1.156,1.311-1.156,2.709,0,4.021c0.201,0.268,0.551,0.786,0.581,0.768
			C130.927,51.71,132.258,51.922,132.684,50.661z M145.55,50.661c0.377-1.549,1.621-0.498,2.412-0.804
			c1.501-0.338,0.682-1.37,0.657-2.143c-0.667-0.32-1.317-0.631-1.981-0.949c-0.6,0.47-1.247,0.977-1.893,1.483
			c0,0.757-0.083,1.527,0.036,2.265c0.057,0.349,0.5,0.636,0.768,0.951c0.778-0.078,1.555-0.156,2.333-0.234
			c-0.02-0.19-0.04-0.38-0.059-0.57C147.065,50.661,146.308,50.661,145.55,50.661z M98.91,46.64
			c-1.197-1.631-2.654-0.533-4.021-0.687c0,0.969,0,1.632,0,2.295c-1.47,0.864-0.615,2.064-0.795,3.539
			c1.526-0.811,3.069,0.502,4.012-1.127c0.517-0.344,1.034-0.689,1.578-1.051C99.323,48.599,100.618,47.259,98.91,46.64z
			 M141.529,50.661c0-1.072,0-2.144,0-3.217c0.944-0.022,1.041-0.812,0.689-1.237c-0.54-0.652-1.28-0.704-1.493,0.432
			c-0.268,1.34-0.536,2.68-0.804,4.021c1.307,1.117,1.407,1.086,3.473,0C142.485,50.661,142.007,50.661,141.529,50.661z
			 M90.064,45.836c-0.228,0.094-0.643,0.169-0.655,0.286c-0.093,0.913-0.008,1.854-0.18,2.747c-0.151,0.787-0.562,1.524-0.923,2.45
			c0.705,0.063,1.067,0.095,1.665,0.149c0.289-1.63-0.318-3.445,0.896-4.827c-0.089-0.511-0.178-1.022-0.342-1.959
			C90.243,45.388,90.154,45.612,90.064,45.836z M126.251,49.857c1.16-0.657,1.519-1.558,0.964-2.912
			c0.155-0.266,0.4-0.687,0.645-1.108c0.258-0.12,0.515-0.24,0.886-0.414c-0.879-0.52-1.498-0.704-1.69,0.414
			c-0.777,0.697-1.554,1.395-2.269,2.037c0.2,0.357,0.43,0.768,0.661,1.179c0.078,0.778,0.155,1.557,0.233,2.335
			c0.19-0.019,0.381-0.038,0.571-0.057C126.251,50.839,126.251,50.348,126.251,49.857z M63.527,49.857c0-0.754,0-1.509,0-2.23
			c-1.503,0-2.748,0-3.8,0c-0.279,1.371-0.515,2.531-0.764,3.758c0.338,0,0.695,0,1.108,0c0.481-1.245-0.036-3.332,2.652-3.028
			c0,0.52,0,1.01,0,1.5c-1.164,0.225-0.953,0.849-0.436,1.607c0.336-0.035,0.683-0.07,1.241-0.128
			C63.527,50.807,63.527,50.332,63.527,49.857z M101.322,50.661c0.519-1.866,2.423,0.008,3.105-1.054c0-0.747,0-1.366,0-2.004
			c-1.356,0-2.595,0-4.129,0c0.7,1.363-0.601,2.896,1.024,3.863c0.528,1.496,1.502,0.675,2.421,0.526
			c-0.046-0.428-0.084-0.779-0.143-1.33C102.802,50.661,102.062,50.661,101.322,50.661z M161.633,51.465
			c1.622-0.986,0.33-2.511,0.816-3.485c-0.514-0.586-0.855-0.974-1.005-1.146c-1.093,0.345-2.018,0.637-2.981,0.941
			c0.52,1.525-1.727,2.806-0.317,4.7c0.772-1.56,1.436-2.901,2.1-4.241c0.194,0.045,0.388,0.089,0.583,0.134
			c0,0.765,0,1.529,0,2.294C161.097,50.929,161.365,51.197,161.633,51.465z M169.674,51.465c1.622-0.986,0.33-2.511,0.244-3.285
			c-0.226-0.646-0.453-1.292-0.621-1.772c-1.219,0.603-1.985,0.981-2.79,1.379c0.516,1.514-1.731,2.795-0.32,4.688
			c0.772-1.56,1.436-2.901,2.1-4.241c0.194,0.045,0.388,0.089,0.583,0.134c0,0.765,0,1.529,0,2.294
			C169.138,50.929,169.406,51.197,169.674,51.465z M100.906,38.599c-3.298-8.848-6.952-17.265-10.027-25.583
			c-2.148,0-3.851,0-5.802,0c-3.172,7.955-6.338,15.873-9.465,23.806c-0.175,0.444-0.023,1.018-0.023,1.619c1.955,0,3.75,0,5.3,0
			c0.68-1.967,1.286-3.719,1.865-5.395c3.666,0,6.972,0,10.059,0c0.828,1.965,1.594,3.785,2.338,5.552
			C96.906,38.599,98.511,38.599,100.906,38.599z M106.329,27.121c3.109,0.82,5.665,1.729,7.03,4.024
			c0.139,2.075-1.323,2.532-2.093,3.5c-2.489-0.396-4.998,0.586-7.36-0.714c0,1.56,0,3.087,0,4.268
			c3.413,1.765,6.66,1.265,9.923,0.407c3.285-0.864,5.227-3.264,5.187-6.176c-0.018-1.325-0.003-2.651-0.003-3.752
			c-2.39-2.936-5.118-4.958-7.709-5.423c-1.517-1.514-2.441-2.437-3.151-3.145c0.804-0.806,1.818-1.822,3.207-3.214
			c0.845,0,2.449,0,3.757,0c0.774,0.391,1.311,0.662,2.328,1.175c-0.277-2.044,0.726-3.788-1.202-5.136
			c-0.297-0.019-0.682-0.064-1.067-0.065c-1.74-0.008-3.48-0.033-5.219,0.002c-4.107,0.083-6.435,2.212-7.046,6.328
			c-0.07,0.469-0.426,0.895-0.481,1.004c0.289,1.434,0.532,2.634,0.763,3.779C104.28,25.072,105.321,26.113,106.329,27.121z
			 M70.052,32.984c-1.251,0.498-2.606,1.402-4.016,1.5c-1.575,0.109-3.201-0.514-4.052-0.676c-4.571-2.899-5.601-6.587-4.799-10.591
			c1.405-2.901,3.532-4.554,6.618-5.518c2.032,0.06,4.606-0.507,6.408,1.428c0.95-1.164,1.912-2.344,2.894-3.548
			c-3.978-3.539-8.909-3.851-13.195-1.637c-4.753,2.456-8.568,5.901-7.582,15.469c1.919,2.075,2.032,5.191,4.917,6.936
			c2.584,1.563,5.184,2.836,8.002,2.931c2.774,0.093,5.715-0.484,7.838-2.592C72.099,35.481,71.209,34.395,70.052,32.984z
			 M139.116,17.764c2.155-1.108,1.631-2.566,1.46-3.84c-0.42-0.42-0.704-0.704-0.951-0.951c-6.298,0-12.557,0-18.814,0
			c0,1.645,0,3.176,0,4.837c2.432,0,4.675,0,7.048,0c0,6.822-0.001,13.503,0.006,20.184c0,0.115,0.07,0.243,0.14,0.34
			c0.075,0.103,0.191,0.178,0.116,0.111c1.879,0,3.584,0,5.413,0c0-6.949,0-13.746,0-20.681
			C135.64,17.764,137.616,17.764,139.116,17.764z M43.01,36.175c-7.791,11.029-18.091,10.908-25.549,4.807
			c-7.704-6.302-8.454-16.195-2.032-23.707c6.25-7.31,17.043-9.009,26.171,0.472c0.321-0.11,0.672-0.23,1.034-0.353
			c-3.094-6.417-11.799-8.875-17.994-7.584c-4.28,0.892-8.289,3.19-11.187,6.867c-1.711,2.171-3.559,7.403-3.849,10.071
			c-0.516,4.739,1.356,8.774,3.671,12.544c2.103,3.425,6.137,5.646,11.856,7.102c5.485,1.396,15.791-1.922,18.959-9.14
			C43.805,36.97,43.521,36.686,43.01,36.175z M19.051,22.723c1.793-1.412,3.587-2.823,5.4-4.251c2.743,0.175,5.688-0.71,8.08,0.893
			c3.116,2.087,4.827,5.251,5.052,9.362c-0.058,0.093-0.442,0.485-0.575,0.949c-1.159,4.027-1.639,4.942-4.766,6.771
			c-1.862,1.089-4.053,1.929-6.198,1.171c-2.103-0.743-4.427-1.277-5.883-3.319c-0.251-0.352-0.998-0.351-1.997-0.663
			c1.515,4.044,4.721,5.2,7.695,5.636c5.038,0.738,9.235-1.074,11.949-5.835c1.6-2.807,1.947-7.27-0.062-10.711
			c-0.904-1.549-2.278-2.843-3.533-4.163c-1.093-1.15-2.461-1.747-4.121-1.692c-2.136,0.07-4.275,0.017-6.16,0.017
			C21.603,18.326,19.07,19.287,19.051,22.723z M33.991,27.702c-1.114-1.394-1.134-3.425-2.936-4.674
			c-1.231,2.135,0.586,3.372,0.938,4.979c-0.79,1.096-1.615,2.239-2.343,3.248c-1.398,0-2.566,0-2.877,0
			c-1.343-0.904-2.113-1.423-2.555-1.72c0-1.502,0-2.546,0-3.59c0.293-0.686,1.406-0.766,1.328-1.604
			c-0.383-0.383-0.667-0.667-0.877-0.877c-0.779,0.654-1.557,1.307-2.059,1.728c0,1.994,0,3.577,0,5.058
			c0.947,0.947,1.799,1.799,2.666,2.666c2.302,0.08,4.656,0.425,6.582-0.899C32.595,30.53,33.251,29.201,33.991,27.702z
			 M109.605,47.375c-0.416,1.686-0.782,3.167-1.187,4.81c2.864-0.598,0.807-3.43,2.544-4.329c-0.086-0.092-0.172-0.184-0.257-0.277
			C110.463,47.534,110.221,47.489,109.605,47.375z M110.907,45.343c-0.568,0.263-1.118,0.518-1.668,0.773
			c0.095,0.128,0.189,0.256,0.284,0.383c0.443,0,0.885,0,1.384,0C110.907,46.008,110.907,45.657,110.907,45.343z M165.439,44.831
			c-0.607,0.625-1.002,1.031-1.985,2.043c1.354-0.285,1.795-0.378,2.283-0.481C165.636,45.863,165.569,45.51,165.439,44.831z"/>
		<path style="fill:#4B4B4B;" d="M100.906,38.599c-2.395,0-4,0-5.754,0c-0.744-1.767-1.511-3.587-2.338-5.552
			c-3.087,0-6.393,0-10.059,0c-0.579,1.675-1.185,3.427-1.865,5.395c-1.549,0-3.345,0-5.3,0c0-0.601-0.153-1.175,0.023-1.619
			c3.127-7.933,6.293-15.851,9.465-23.806c1.951,0,3.654,0,5.802,0C93.953,21.334,97.607,29.751,100.906,38.599z M84.315,28.813
			c2.316,0,4.37,0,6.838,0c-1.071-3.306-2.065-6.372-3.309-10.212C86.528,22.41,85.455,25.514,84.315,28.813z"/>
		<path style="fill:#4C4C4C;" d="M106.329,27.121c-1.008-1.009-2.05-2.05-3.138-3.138c-0.231-1.144-0.473-2.345-0.763-3.779
			c0.054-0.109,0.411-0.535,0.481-1.004c0.611-4.116,2.939-6.245,7.046-6.328c1.739-0.035,3.48-0.01,5.219-0.002
			c0.385,0.002,0.77,0.046,1.067,0.065c1.928,1.348,0.925,3.092,1.202,5.136c-1.017-0.513-1.554-0.784-2.328-1.175
			c-1.308,0-2.911,0-3.757,0c-1.389,1.392-2.403,2.408-3.207,3.214c0.71,0.708,1.634,1.631,3.151,3.145
			c2.591,0.465,5.32,2.487,7.709,5.423c0,1.101-0.015,2.427,0.003,3.752c0.04,2.912-1.902,5.312-5.187,6.176
			c-3.263,0.858-6.509,1.358-9.923-0.407c0-1.181,0-2.707,0-4.268c2.362,1.3,4.872,0.318,7.36,0.714
			c0.77-0.968,2.232-1.425,2.093-3.5C111.994,28.85,109.438,27.941,106.329,27.121z"/>
		<path style="fill:#4C4C4C;" d="M70.052,32.984c1.156,1.411,2.047,2.498,3.034,3.701c-2.123,2.108-5.064,2.686-7.838,2.592
			c-2.819-0.095-5.418-1.368-8.002-2.931c-2.885-1.745-2.998-4.861-4.917-6.936c-0.986-9.568,2.829-13.013,7.582-15.469
			c4.286-2.214,9.217-1.903,13.195,1.637c-0.982,1.204-1.944,2.384-2.894,3.548c-1.802-1.935-4.376-1.368-6.408-1.428
			c-3.086,0.964-5.214,2.617-6.618,5.518c-0.803,4.004,0.228,7.693,4.799,10.591c0.851,0.162,2.477,0.785,4.052,0.676
			C67.447,34.386,68.801,33.481,70.052,32.984z"/>
		<path style="fill:#4E4E4E;" d="M139.116,17.764c-1.501,0-3.476,0-5.582,0c0,6.936,0,13.733,0,20.681c-1.829,0-3.535,0-5.413,0
			c0.075,0.067-0.04-0.008-0.116-0.111c-0.071-0.097-0.14-0.225-0.14-0.34c-0.007-6.681-0.006-13.362-0.006-20.184
			c-2.373,0-4.616,0-7.048,0c0-1.662,0-3.192,0-4.837c6.257,0,12.517,0,18.814,0c0.247,0.247,0.531,0.531,0.951,0.951
			C140.748,15.198,141.272,16.655,139.116,17.764z"/>
		<path style="fill:#484848;" d="M43.01,36.175c0.511,0.511,0.795,0.795,1.079,1.079c-3.168,7.218-13.474,10.536-18.959,9.14
			c-5.719-1.456-9.753-3.677-11.856-7.102c-2.315-3.77-4.186-7.805-3.671-12.544c0.29-2.667,2.138-7.899,3.849-10.071
			c2.898-3.678,6.907-5.975,11.187-6.867c6.195-1.292,14.9,1.167,17.994,7.584c-0.361,0.123-0.713,0.244-1.034,0.353
			c-9.128-9.481-19.921-7.782-26.171-0.472c-6.422,7.512-5.672,17.405,2.032,23.707C24.919,47.083,35.219,47.204,43.01,36.175z"/>
		<path style="fill:#464646;" d="M19.051,22.723c0.018-3.436,2.551-4.397,4.881-5.836c1.885,0,4.025,0.053,6.16-0.017
			c1.659-0.054,3.027,0.542,4.121,1.692c1.255,1.32,2.629,2.614,3.533,4.163c2.009,3.442,1.662,7.904,0.062,10.711
			c-2.714,4.761-6.91,6.572-11.949,5.835c-2.974-0.436-6.18-1.592-7.695-5.636c0.999,0.313,1.746,0.311,1.997,0.663
			c1.455,2.042,3.78,2.576,5.883,3.319c2.145,0.758,4.336-0.082,6.198-1.171c3.127-1.829,3.607-2.744,4.766-6.771
			c0.133-0.464,0.517-0.856,0.575-0.949c-0.225-4.111-1.936-7.274-5.052-9.362c-2.392-1.603-5.337-0.718-8.08-0.893
			C22.638,19.9,20.845,21.312,19.051,22.723z"/>
		<path style="fill:#505050;" d="M33.991,27.702c-0.74,1.499-1.396,2.828-2.131,4.316c-1.927,1.323-4.281,0.978-6.582,0.899
			c-0.867-0.867-1.719-1.719-2.666-2.666c0-1.481,0-3.064,0-5.058c0.502-0.421,1.28-1.074,2.059-1.728
			c0.209,0.209,0.493,0.493,0.877,0.877c0.078,0.838-1.034,0.918-1.328,1.604c0,1.044,0,2.089,0,3.59
			c0.441,0.297,1.211,0.816,2.555,1.72c0.31,0,1.478,0,2.877,0c0.728-1.009,1.552-2.152,2.343-3.248
			c-0.352-1.606-2.169-2.843-0.938-4.979C32.857,24.277,32.876,26.309,33.991,27.702z"/>
		<path style="fill:#515151;" d="M172.087,51.465c-0.355-0.901-0.711-1.803-1.026-2.602c0.59-0.579,0.963-0.945,1.381-1.356
			c1.095,0,2.243,0,3.772,0c-0.341,1.033-0.901,1.914-0.842,2.753c0.078,1.132-0.45,1.921-0.872,2.814
			c-0.268-0.268-0.536-0.536-0.804-0.804C173.626,51.066,172.696,51.586,172.087,51.465z M173.025,48.316c0,0.782,0,1.497,0,2.278
			c0.491,0,0.849,0,1.34,0c0-0.782,0-1.497,0-2.278C173.874,48.316,173.516,48.316,173.025,48.316z"/>
		<path style="fill:#767676;" d="M168.87,50.661c0-0.765,0-1.529,0-2.294c-0.194-0.045-0.388-0.089-0.583-0.134
			c-0.664,1.341-1.328,2.682-2.1,4.241c-1.411-1.893,0.836-3.174,0.32-4.688c0.804-0.397,1.57-0.776,2.79-1.379
			c0.168,0.48,0.395,1.126,0.621,1.772c0.086,0.773,1.378,2.299-0.244,3.285C169.406,51.197,169.138,50.929,168.87,50.661z"/>
		<path style="fill:#717171;" d="M160.829,50.661c0-0.765,0-1.529,0-2.294c-0.194-0.045-0.388-0.089-0.583-0.134
			c-0.664,1.341-1.328,2.681-2.1,4.241c-1.411-1.893,0.836-3.174,0.317-4.7c0.963-0.304,1.888-0.596,2.981-0.941
			c0.151,0.172,0.491,0.56,1.005,1.146c-0.486,0.973,0.806,2.499-0.816,3.485C161.365,51.197,161.097,50.929,160.829,50.661z"/>
		<path style="fill:#E5E5E5;" d="M83.631,51.465c-0.268,0-0.536,0-0.804,0c-0.306-0.791,0.745-2.035-0.804-2.412
			c-0.268,0-0.536,0-0.804,0c0.505-0.439,1.01-0.877,1.85-1.608c-1.463,0-2.461,0-3.459,0c-0.804,0-1.608,0-2.412,0
			c0-0.129-0.027-0.364,0.004-0.372c2.448-0.631,4.882-0.902,7.233,0.372c0,0.268,0,0.536,0,0.804s0,0.536,0,0.804
			C82.886,49.43,83.937,50.674,83.631,51.465z"/>
		<path style="fill:#656565;" d="M57.898,48.249c-0.061,1.123,0.418,2.433-1.701,3.142c-0.497,0-1.638,0-3.105,0
			c0.34-1.32-0.879-2.8,0.785-3.947c0.268,0,0.536,0,0.804,0c-0.188,0.69-0.376,1.38-0.511,1.872
			c0.273,0.456,0.603,1.008,1.055,1.764c0.808-0.689,1.356-1.155,1.868-1.591c0-0.746,0-1.396,0-2.045
			C57.362,47.713,57.63,47.981,57.898,48.249z"/>
		<path style="fill:#4B4B4B;" d="M101.322,51.465c-1.625-0.966-0.324-2.5-1.024-3.863c1.534,0,2.772,0,4.129,0
			c0,0.638,0,1.257,0,2.004c-0.682,1.062-2.586-0.812-3.105,1.054C101.322,50.929,101.322,51.197,101.322,51.465z M102.93,48.785
			c0-0.089,0-0.179,0-0.268c-0.268,0-0.536,0-0.804,0c0,0.089,0,0.179,0,0.268C102.394,48.785,102.662,48.785,102.93,48.785z"/>
		<path style="fill:#5B5B5B;" d="M151.179,47.444c1.212-0.205,1.918,0.437,2.423,1.459c-0.331,0.762-0.668,1.539-1.062,2.444
			c-0.802,0-1.687,0-2.671,0c-0.205-0.763-0.982-1.719,0.506-2.295c0.511-0.089,1.022-0.178,1.959-0.342
			c-0.707-0.283-0.931-0.372-1.155-0.462C151.179,47.981,151.179,47.713,151.179,47.444z M150.502,49.994
			c0.029,0.232,0.058,0.463,0.087,0.695c0.436-0.104,0.872-0.208,1.308-0.312c-0.021-0.127-0.042-0.255-0.063-0.382
			C151.39,49.994,150.946,49.994,150.502,49.994z"/>
		<path style="fill:#505050;" d="M71.569,48.249c1.168-0.931,2.481-0.908,3.93-0.734c0,0.763,0,1.375,0,2.049
			c-0.737,1.096-2.613-0.773-3.126,1.097c0,0.268,0,0.536,0,0.804c-0.268-0.315-0.711-0.602-0.768-0.951
			C71.486,49.776,71.569,49.006,71.569,48.249z M74.658,48.915c-0.029-0.232-0.058-0.463-0.087-0.695
			c-0.436,0.104-0.872,0.208-1.308,0.312c0.021,0.127,0.041,0.255,0.062,0.382C73.769,48.915,74.214,48.915,74.658,48.915z"/>
		<path style="fill:#5B5B5B;" d="M83.631,51.465c0.306-0.791-0.745-2.035,0.804-2.412c0.791-0.306,2.035,0.745,2.412-0.804
			c0-0.268,0-0.536,0-0.804c1.778,0.619,0.187,2.02,0.812,2.691C86.577,51.994,85,51.356,83.631,51.465z M84.582,49.994
			c0.015,0.23,0.03,0.459,0.045,0.689c0.448-0.098,0.896-0.195,1.343-0.293c-0.018-0.132-0.036-0.264-0.054-0.396
			C85.472,49.994,85.027,49.994,84.582,49.994z"/>
		<path style="fill:#555555;" d="M112.58,51.465c-0.564-0.402-1.128-0.804-1.803-1.285c0.371-0.717,0.685-1.324,0.999-1.931
			c0.268,0,0.536,0,0.804,0c0,0.756,0,1.513,0,2.885c0.839-0.666,1.224-0.971,1.608-1.277c0.268,0.268,0.536,0.536,0.804,0.804
			c-0.306,0.791,0.745,2.035-0.804,2.412c-0.268,0-0.536,0-0.804,0c0.232-0.457,0.463-0.914,0.816-1.608
			C113.51,51.465,113.045,51.465,112.58,51.465z"/>
		<path style="fill:#5C5C5C;" d="M62.723,49.857c0-0.49,0-0.98,0-1.5c-2.688-0.304-2.171,1.783-2.652,3.028c-0.413,0-0.77,0-1.108,0
			c0.249-1.227,0.485-2.387,0.764-3.758c1.052,0,2.297,0,3.8,0c0,0.722,0,1.476,0,2.23C63.259,49.857,62.991,49.857,62.723,49.857z"
			/>
		<path style="fill:#606060;" d="M98.105,50.661c-0.942,1.629-2.486,0.316-4.012,1.127c0.18-1.476-0.674-2.675,0.795-3.539
			c0.268,0,0.536,0,0.804,0c-0.196,0.743-0.392,1.485-0.71,2.693c1.208-0.42,2.166-0.752,3.123-1.084
			C98.105,50.125,98.105,50.393,98.105,50.661z"/>
		<path style="fill:#5C5C5C;" d="M125.446,49.053c-0.23-0.411-0.461-0.822-0.661-1.179c0.715-0.642,1.492-1.34,2.269-2.037
			c0.268,0,0.536,0,0.804,0c-0.245,0.421-0.49,0.842-0.645,1.108c0.556,1.354,0.196,2.255-0.964,2.912
			C125.982,49.589,125.714,49.321,125.446,49.053z"/>
		<path style="fill:#5B5B5B;" d="M90.868,46.64c-1.215,1.382-0.607,3.197-0.896,4.827c-0.597-0.053-0.96-0.086-1.665-0.149
			c0.361-0.925,0.772-1.663,0.923-2.45c0.171-0.894,0.086-1.834,0.18-2.747c0.012-0.116,0.427-0.191,0.655-0.286
			C90.332,46.104,90.6,46.372,90.868,46.64z"/>
		<path style="fill:#656565;" d="M114.993,50.661c-0.268-0.268-0.536-0.536-0.804-0.804c0-0.469,0-0.939,0-1.608
			c-0.67,0-1.139,0-1.608,0c-0.268,0-0.536,0-0.804,0c0.942-1.629,2.486-0.316,4.012-1.127
			C115.607,48.597,116.462,49.797,114.993,50.661z"/>
		<path style="fill:#5D5D5D;" d="M116.601,50.661c0.301-1.017,0.601-2.033,0.951-3.217c0.793,0,1.529,0,2.266,0
			c0,0.268,0,0.536,0,0.804c-1.13,0.311-1.638,1.028-1.649,2.223c-0.003,0.334-0.496,0.663-0.764,0.994
			C117.137,51.197,116.869,50.929,116.601,50.661z"/>
		<path style="fill:#6E6E6E;" d="M144.746,48.249c0.646-0.506,1.293-1.013,1.893-1.483c0.663,0.318,1.313,0.629,1.981,0.949
			c0.024,0.773,0.843,1.804-0.657,2.143c-0.268-0.268-0.536-0.536-0.804-0.804c-0.088-0.222-0.177-0.445-0.265-0.667
			c-0.18,0.222-0.36,0.445-0.539,0.667C145.818,48.785,145.282,48.517,144.746,48.249z"/>
		<path style="fill:#7D7D7D;" d="M109.605,47.375c0.616,0.114,0.858,0.159,1.099,0.204c0.086,0.093,0.172,0.185,0.257,0.277
			c-1.737,0.9,0.32,3.731-2.544,4.329C108.824,50.541,109.189,49.06,109.605,47.375z"/>
		<path style="fill:#898989;" d="M82.023,49.053c1.549,0.377,0.498,1.621,0.804,2.412c-0.887,0.268-1.767,0.57-2.671,0.764
			c-0.122,0.026-0.361-0.496-0.546-0.764c0.268-0.268,0.536-0.536,0.804-0.804c0.268-0.268,0.536-0.536,0.804-0.804
			C81.487,49.589,81.755,49.321,82.023,49.053z"/>
		<path style="fill:#515151;" d="M68.352,47.444c0,0.726,0,1.452,0,2.411c0.684-0.341,1.146-0.572,1.608-0.802
			c0,0.268,0,0.536,0,0.804c-0.531,0.609-1.062,1.219-2.078,2.384c-0.163-1.555-0.249-2.371-0.335-3.188c0-0.536,0-1.072,0-1.608
			C67.816,47.444,68.084,47.444,68.352,47.444z"/>
		<path style="fill:#D5D5D5;" d="M67.548,47.444c0,0.536,0,1.072,0,1.608c-0.536,0-1.072,0-1.608,0
			c-0.121-0.61,0.399-1.54-0.804-1.608c0.306-0.791-0.745-2.035,0.804-2.412c0.121,0.61-0.399,1.54,0.804,1.608
			C67.012,46.908,67.28,47.176,67.548,47.444z"/>
		<path style="fill:#6C6C6C;" d="M139.921,50.661c0.268-1.34,0.536-2.68,0.804-4.021c0.268,0.268,0.536,0.536,0.804,0.804
			c0,1.072,0,2.144,0,3.217C140.993,50.661,140.457,50.661,139.921,50.661z"/>
		<path style="fill:#7C7C7C;" d="M106.147,49.857c-1.402-0.103-0.464-1.242-0.972-1.825c0.827-0.487,1.535-0.903,2.247-1.322
			c0.359,0.359,0.734,0.734,1.103,1.103c-0.524,0.413-1.049,0.827-1.574,1.24C106.683,49.321,106.415,49.589,106.147,49.857z"/>
		<path style="fill:#575757;" d="M98.105,50.661c0-0.268,0-0.536,0-0.804c0-0.804,0-1.608,0-2.412
			c0.268-0.268,0.536-0.536,0.804-0.804c1.708,0.619,0.413,1.958,0.774,2.97C99.14,49.972,98.623,50.317,98.105,50.661z"/>
		<path style="fill:#4A4A4A;" d="M147.158,49.053c0.268,0.268,0.536,0.536,0.804,0.804c-0.791,0.306-2.035-0.745-2.412,0.804
			c0,0.268,0,0.536,0,0.804c-0.268-0.315-0.711-0.602-0.768-0.951c-0.119-0.738-0.036-1.508-0.036-2.265
			c0.536,0.268,1.072,0.536,1.608,0.804C146.622,49.053,146.89,49.053,147.158,49.053z"/>
		<path style="fill:#585858;" d="M129.467,51.465c-1.156-1.311-1.156-2.709,0-4.021c0.268,0.268,0.536,0.536,0.804,0.804
			c-0.166,0.3-0.313,0.611-0.5,0.897c-0.479,0.727-0.603,1.319,0.5,1.516C130.003,50.929,129.735,51.197,129.467,51.465z"/>
		<path style="fill:#4B4B4B;" d="M130.271,48.249c-0.268-0.268-0.536-0.536-0.804-0.804c1.006,0,2.012,0,3.217,0
			c0,1.204,0,2.21,0,3.217c-0.268-0.268-0.536-0.536-0.804-0.804c0-0.469,0-0.939,0-1.608
			C131.21,48.249,130.741,48.249,130.271,48.249z"/>
		<path style="fill:#535353;" d="M134.292,49.857c0-0.654,0-1.307,0-2.238c0.677-0.068,1.382-0.138,2.087-0.208
			c0.038,0.309,0.151,0.572,0.069,0.666c-0.657,0.759-1.695,1.303-1.352,2.584C134.828,50.393,134.56,50.125,134.292,49.857z"/>
		<path style="fill:#575757;" d="M65.136,47.444c1.203,0.069,0.683,0.999,0.804,1.608c0,0.755,0,1.511,0,2.339
			c-0.613,0-0.971,0-1.31,0c-0.113-0.274-0.351-0.604-0.276-0.707C65.068,49.703,65.238,48.611,65.136,47.444z"/>
		<path style="fill:#515151;" d="M95.693,48.249c-0.268,0-0.536,0-0.804,0c0-0.663,0-1.327,0-2.295
			c1.367,0.154,2.823-0.944,4.021,0.687c-0.268,0-0.536,0-0.804,0c-0.732,0-1.464,0-2.412,0
			C95.693,47.299,95.693,47.774,95.693,48.249z"/>
		<path style="fill:#767676;" d="M79.61,47.444c0.998,0,1.996,0,3.459,0c-0.841,0.731-1.346,1.17-1.85,1.608
			c0,0.268,0,0.536,0,0.804c-0.268-0.333-0.514-0.689-0.811-0.993c-0.232-0.238-0.529-0.412-0.797-0.615
			C79.61,47.981,79.61,47.713,79.61,47.444z"/>
		<path style="fill:#545454;" d="M79.61,47.444c0,0.268,0,0.536,0,0.804c-0.536,0.536-1.072,1.072-1.608,1.608
			c-0.268-0.268-0.536-0.536-0.804-0.804c0-0.536,0-1.072,0-1.608C78.002,47.444,78.806,47.444,79.61,47.444z"/>
		<path style="fill:#747474;" d="M131.88,49.857c0.268,0.268,0.536,0.536,0.804,0.804c-0.425,1.261-1.757,1.048-2.635,1.572
			c-0.03,0.018-0.38-0.5-0.581-0.768c0.268-0.268,0.536-0.536,0.804-0.804C130.807,50.393,131.343,50.125,131.88,49.857z"/>
		<path style="fill:#8A8A8A;" d="M73.177,50.661c0.736,0,1.471,0,2.385,0c-1.649,1.816-1.649,1.816-3.189,0.804
			C72.641,51.197,72.909,50.929,73.177,50.661z"/>
		<path style="fill:#878787;" d="M77.198,49.053c0.268,0.268,0.536,0.536,0.804,0.804c0.198,1.128-0.328,1.848-1.668,2.488
			C76.645,51.097,75.705,49.88,77.198,49.053z"/>
		<path style="fill:#707070;" d="M101.322,51.465c0-0.268,0-0.536,0-0.804c0.74,0,1.48,0,2.277,0
			c0.059,0.551,0.097,0.902,0.143,1.33C102.824,52.14,101.85,52.962,101.322,51.465z"/>
		<path style="fill:#484848;" d="M156.004,49.053c-0.403,0.79-0.806,1.58-1.209,2.37c-0.147-1.13-1.087-2.347,0.405-3.174
			C155.468,48.517,155.736,48.785,156.004,49.053z"/>
		<path style="fill:#828282;" d="M106.951,51.465c-0.879,0.728-0.878,0.758-2.267,0.735c-0.046-0.415-0.094-0.854-0.169-1.539
			c0.675,0,1.153,0,1.631,0C106.415,50.929,106.683,51.197,106.951,51.465z"/>
		<path style="fill:#666666;" d="M106.951,51.465c-0.268-0.268-0.536-0.536-0.804-0.804c0-0.268,0-0.536,0-0.804
			c0.268-0.268,0.536-0.536,0.804-0.804C108.053,49.862,108.053,50.656,106.951,51.465z"/>
		<path style="fill:#4A4A4A;" d="M119.817,49.857c0-0.536,0-1.072,0-1.608c0.268-0.268,0.536-0.536,0.804-0.804
			c1.102,0.809,1.102,1.604,0,2.412C120.353,49.857,120.085,49.857,119.817,49.857z"/>
		<path style="fill:#8F8F8F;" d="M113.384,53.073c0.268,0,0.536,0,0.804,0c-0.413,1.552-1.669,0.497-2.488,0.797
			c-0.104,0.038-0.242-0.018-0.381-0.032c-0.502-0.708-0.723-1.334,0.457-1.569C111.845,53.472,112.775,52.952,113.384,53.073z"/>
		<path style="fill:#949494;" d="M173.695,52.269c0.268,0.268,0.536,0.536,0.804,0.804c-1.017,1.088-2.199,1.088-3.217,0
			c0.268,0,0.536,0,0.804,0C172.623,52.805,173.159,52.537,173.695,52.269z"/>
		<path style="fill:#4C4C4C;" d="M139.921,50.661c0.536,0,1.072,0,1.608,0c0.478,0,0.956,0,1.865,0
			C141.328,51.747,141.227,51.778,139.921,50.661z"/>
		<path style="fill:#464646;" d="M156.004,49.053c-0.268-0.268-0.536-0.536-0.804-0.804c0.572-1.488,1.53-0.708,2.414-0.477
			C157.052,48.219,156.528,48.636,156.004,49.053z"/>
		<path style="fill:#787878;" d="M57.898,48.249c-0.268-0.268-0.536-0.536-0.804-0.804c0.121-0.61-0.399-1.54,0.804-1.608
			c0.268,0.268,0.536,0.536,0.804,0.804C58.581,47.25,59.101,48.18,57.898,48.249z"/>
		<path style="fill:#A6A6A6;" d="M113.384,53.073c-0.61-0.121-1.54,0.399-1.608-0.804c0.268-0.268,0.536-0.536,0.804-0.804
			c0.465,0,0.93,0,1.62,0C113.848,52.16,113.616,52.617,113.384,53.073z"/>
		<path style="fill:#5E5E5E;" d="M62.723,49.857c0.268,0,0.536,0,0.804,0c0,0.475,0,0.95,0,1.479
			c-0.557,0.057-0.905,0.093-1.241,0.128C61.77,50.706,61.559,50.082,62.723,49.857z"/>
		<path style="fill:#626262;" d="M69.96,49.857c0-0.268,0-0.536,0-0.804c0-0.49,0-0.98,0-2.088c0.841,0.672,1.225,0.978,1.608,1.284
			c-0.268,0.203-0.565,0.377-0.797,0.615C70.474,49.168,70.229,49.523,69.96,49.857z"/>
		<path style="fill:#919191;" d="M134.292,49.857c0.268,0.268,0.536,0.536,0.804,0.804c-0.388,0.538-0.775,1.075-1.39,1.928
			C133.648,51.33,132.789,50.336,134.292,49.857z"/>
		<path style="fill:#444444;" d="M110.907,45.343c0,0.313,0,0.665,0,1.157c-0.499,0-0.942,0-1.384,0
			c-0.095-0.128-0.189-0.256-0.284-0.383C109.789,45.862,110.339,45.607,110.907,45.343z"/>
		<path style="fill:#484848;" d="M125.446,49.053c0.268,0.268,0.536,0.536,0.804,0.804c0,0.491,0,0.983,0,1.474
			c-0.19,0.019-0.381,0.038-0.571,0.057C125.602,50.609,125.524,49.831,125.446,49.053z"/>
		<path style="fill:#767676;" d="M165.439,44.831c0.129,0.678,0.196,1.032,0.297,1.562c-0.488,0.103-0.929,0.196-2.283,0.481
			C164.438,45.862,164.832,45.456,165.439,44.831z"/>
		<path style="fill:#484848;" d="M164.849,49.857c-0.386,0.54-0.773,1.08-1.209,1.689c-0.535-0.868-0.725-1.489,0.404-1.689
			C164.313,49.857,164.581,49.857,164.849,49.857z"/>
		<path style="fill:#474747;" d="M164.849,49.857c-0.268,0-0.536,0-0.804,0c0-0.758,0-1.516,0-2.273c0.19-0.02,0.38-0.04,0.57-0.059
			C164.693,48.302,164.771,49.079,164.849,49.857z"/>
		<path style="fill:#747474;" d="M141.529,47.444c-0.268-0.268-0.536-0.536-0.804-0.804c0.214-1.136,0.953-1.084,1.493-0.432
			C142.57,46.632,142.474,47.423,141.529,47.444z"/>
		<path style="fill:#4B4B4B;" d="M145.55,51.465c0-0.268,0-0.536,0-0.804c0.758,0,1.516,0,2.273,0c0.02,0.19,0.04,0.38,0.059,0.57
			C147.105,51.309,146.328,51.387,145.55,51.465z"/>
		<path style="fill:#B4B4B4;" d="M173.695,52.269c-0.536,0.268-1.072,0.536-1.608,0.804c0-0.268,0-0.536,0-0.804
			c0-0.268,0-0.536,0-0.804C172.696,51.586,173.626,51.066,173.695,52.269z"/>
		<path style="fill:#484848;" d="M119.817,49.857c0.268,0,0.536,0,0.804,0c0,0.49,0,0.98,0,1.47
			c-0.177,0.019-0.354,0.039-0.532,0.058C119.999,50.875,119.908,50.366,119.817,49.857z"/>
		<path style="fill:#444444;" d="M66.744,46.64c-1.203-0.069-0.683-0.999-0.804-1.608C67.143,45.101,66.623,46.031,66.744,46.64z"/>
		<path style="fill:#464646;" d="M90.868,46.64c-0.268-0.268-0.536-0.536-0.804-0.804c0.09-0.224,0.179-0.449,0.462-1.155
			C90.69,45.619,90.779,46.13,90.868,46.64z"/>
		<path style="fill:#484848;" d="M86.847,47.444c0,0.268,0,0.536,0,0.804c-0.536,0-1.072,0-1.608,0c0-0.268,0-0.536,0-0.804
			C85.775,47.444,86.311,47.444,86.847,47.444z"/>
		<path style="fill:#4F4F4F;" d="M54.682,47.444c-0.268,0-0.536,0-0.804,0c0-0.49,0-0.98,0-1.47
			c0.177-0.019,0.355-0.039,0.532-0.058C54.5,46.426,54.591,46.935,54.682,47.444z"/>
		<path style="fill:#DFDFDF;" d="M151.179,48.249c0.224,0.09,0.449,0.179,1.155,0.462c-0.938,0.164-1.449,0.253-1.959,0.342
			c0-0.268,0-0.536,0-0.804C150.643,48.249,150.911,48.249,151.179,48.249z"/>
		<path style="fill:#5A5A5A;" d="M127.859,45.836c-0.268,0-0.536,0-0.804,0c0.192-1.118,0.811-0.934,1.69-0.414
			C128.374,45.596,128.116,45.716,127.859,45.836z"/>
		<path style="fill:#5E5E5E;" d="M172.087,52.269c0,0.268,0,0.536,0,0.804c-0.268,0-0.536,0-0.804,0
			C171.551,52.805,171.819,52.537,172.087,52.269z"/>
		<path style="fill:#444444;" d="M85.239,47.444c0,0.268,0,0.536,0,0.804c-0.268,0-0.536,0-0.804,0c0-0.268,0-0.536,0-0.804
			C84.703,47.444,84.971,47.444,85.239,47.444z"/>
		<path style="fill:#4A4A4A;" d="M120.622,47.444c-0.268,0.268-0.536,0.536-0.804,0.804c0-0.268,0-0.536,0-0.804
			C120.085,47.444,120.353,47.444,120.622,47.444z"/>
		<path style="fill:#484848;" d="M168.87,50.661c0.268,0.268,0.536,0.536,0.804,0.804C169.406,51.197,169.138,50.929,168.87,50.661z
			"/>
		<path style="fill:#484848;" d="M160.829,50.661c0.268,0.268,0.536,0.536,0.804,0.804
			C161.365,51.197,161.097,50.929,160.829,50.661z"/>
		<path style="fill:#D5D5D5;" d="M68.352,47.444c-0.268,0-0.536,0-0.804,0c0.18-0.222,0.36-0.445,0.539-0.667
			C68.176,47,68.264,47.222,68.352,47.444z"/>
		<path style="fill:#444444;" d="M151.179,48.249c-0.268,0-0.536,0-0.804,0c0.268-0.268,0.536-0.536,0.804-0.804
			C151.179,47.713,151.179,47.981,151.179,48.249z"/>
		<path style="fill:#484848;" d="M116.601,50.661c0.268,0.268,0.536,0.536,0.804,0.804
			C117.137,51.197,116.869,50.929,116.601,50.661z"/>
		<path style="fill:#484848;" d="M58.702,46.64c-0.268-0.268-0.536-0.536-0.804-0.804C58.166,46.104,58.434,46.372,58.702,46.64z"/>
		<path style="fill:#4B4B4B;" d="M80.414,50.661c-0.268,0.268-0.536,0.536-0.804,0.804C79.878,51.197,80.146,50.929,80.414,50.661z"
			/>
		<path style="fill:#484848;" d="M73.177,50.661c-0.268,0.268-0.536,0.536-0.804,0.804c0-0.268,0-0.536,0-0.804
			C72.641,50.661,72.909,50.661,73.177,50.661z"/>
		<path style="fill:#F0F0F0;" d="M84.315,28.813c1.14-3.299,2.213-6.403,3.529-10.212c1.244,3.84,2.238,6.906,3.309,10.212
			C88.686,28.813,86.632,28.813,84.315,28.813z"/>
		<path style="fill:#F5F5F5;" d="M173.025,48.316c0.491,0,0.849,0,1.34,0c0,0.782,0,1.497,0,2.278c-0.491,0-0.849,0-1.34,0
			C173.025,49.812,173.025,49.097,173.025,48.316z"/>
		<path style="fill:#C6C6C6;" d="M84.435,48.249c0.268,0,0.536,0,0.804,0c0.536,0,1.072,0,1.608,0
			c-0.377,1.549-1.621,0.498-2.412,0.804C84.435,48.785,84.435,48.517,84.435,48.249z"/>
		<path style="fill:#484848;" d="M81.218,49.857c0-0.268,0-0.536,0-0.804c0.268,0,0.536,0,0.804,0
			C81.755,49.321,81.487,49.589,81.218,49.857z"/>
		<path style="fill:#FFFFFF;" d="M102.93,48.785c-0.268,0-0.536,0-0.804,0c0-0.089,0-0.179,0-0.268c0.268,0,0.536,0,0.804,0
			C102.93,48.606,102.93,48.695,102.93,48.785z"/>
		<path style="fill:#E4E4E4;" d="M150.502,49.994c0.444,0,0.888,0,1.332,0c0.021,0.127,0.042,0.255,0.063,0.382
			c-0.436,0.104-0.872,0.208-1.308,0.312C150.56,50.457,150.531,50.226,150.502,49.994z"/>
		<path style="fill:#CACACA;" d="M74.658,48.915c-0.445,0-0.889,0-1.334,0c-0.021-0.127-0.041-0.255-0.062-0.382
			c0.436-0.104,0.872-0.208,1.308-0.312C74.6,48.452,74.629,48.684,74.658,48.915z"/>
		<path style="fill:#F9F9F9;" d="M84.582,49.994c0.445,0,0.889,0,1.334,0c0.018,0.132,0.036,0.264,0.054,0.396
			c-0.448,0.098-0.896,0.195-1.343,0.293C84.612,50.453,84.597,50.224,84.582,49.994z"/>
		<path style="fill:#F3F3F3;" d="M112.58,48.249c0.469,0,0.939,0,1.608,0c0,0.67,0,1.139,0,1.608
			c-0.385,0.305-0.77,0.611-1.608,1.277C112.58,49.761,112.58,49.005,112.58,48.249z"/>
		<path style="fill:#F3F3F3;" d="M95.693,48.249c0-0.475,0-0.95,0-1.608c0.949,0,1.681,0,2.412,0c0,0.268,0,0.536,0,0.804
			c0,0.804,0,1.608,0,2.412c-0.957,0.332-1.915,0.665-3.123,1.084C95.301,49.734,95.497,48.991,95.693,48.249z"/>
		<path style="fill:#FFFFFF;" d="M147.158,49.053c-0.268,0-0.536,0-0.804,0c0.18-0.222,0.36-0.445,0.539-0.667
			C146.982,48.608,147.07,48.83,147.158,49.053z"/>
		<path style="fill:#494949;" d="M106.951,49.053c-0.268,0.268-0.536,0.536-0.804,0.804
			C106.415,49.589,106.683,49.321,106.951,49.053z"/>
		<path style="fill:#484848;" d="M98.105,47.444c0-0.268,0-0.536,0-0.804c0.268,0,0.536,0,0.804,0
			C98.642,46.908,98.374,47.176,98.105,47.444z"/>
		<path style="fill:#F1F1F1;" d="M131.88,49.857c-0.536,0.268-1.072,0.536-1.608,0.804c-1.103-0.197-0.979-0.789-0.5-1.516
			c0.188-0.285,0.335-0.597,0.5-0.897c0.469,0,0.939,0,1.608,0C131.88,48.918,131.88,49.388,131.88,49.857z"/>
	</g>
</g>
</svg>
