<?xml version="1.0" encoding="iso-8859-1"?>
<!-- Generator: Adobe Illustrator 19.1.0, SVG Export Plug-In . SVG Version: 6.00 Build 0)  -->
<svg version="1.1" id="Layer_1" xmlns="http://www.w3.org/2000/svg" xmlns:xlink="http://www.w3.org/1999/xlink" x="0px" y="0px"
	 viewBox="0 0 293 295" style="enable-background:new 0 0 293 295;" xml:space="preserve">
<g>
	<linearGradient id="SVGID_1_" gradientUnits="userSpaceOnUse" x1="187.0733" y1="310.9907" x2="-2.0124" y2="69.4121">
		<stop  offset="0" style="stop-color:#1B110A"/>
		<stop  offset="0.023" style="stop-color:#1D140D"/>
		<stop  offset="0.2838" style="stop-color:#342F2C"/>
		<stop  offset="0.5382" style="stop-color:#444242"/>
		<stop  offset="0.7811" style="stop-color:#4E4E4F"/>
		<stop  offset="1" style="stop-color:#515254"/>
	</linearGradient>
	<path style="fill:url(#SVGID_1_);" d="M100.303,246.063v19.999c0,7.871,5.014,14.256,11.172,14.256h12.689v-13.325h10.754v13.325
		h23.751V267.48h12.491v12.837h10.138c6.18,0,11.172-6.385,11.172-14.256v-19.999H100.303z"/>
	<linearGradient id="SVGID_2_" gradientUnits="userSpaceOnUse" x1="302.8504" y1="220.248" x2="112.5114" y2="-22.9319">
		<stop  offset="0" style="stop-color:#1B110A"/>
		<stop  offset="0.023" style="stop-color:#1D140D"/>
		<stop  offset="0.2838" style="stop-color:#342F2C"/>
		<stop  offset="0.5382" style="stop-color:#444242"/>
		<stop  offset="0.7811" style="stop-color:#4E4E4F"/>
		<stop  offset="1" style="stop-color:#515254"/>
	</linearGradient>
	<path style="fill:url(#SVGID_2_);" d="M229.241,156.224c7.214,5.565,17.55,5.166,24.323-1.33
		c6.796-6.518,7.675-16.917,2.507-24.433L229.241,156.224z"/>
	<g>
		<linearGradient id="SVGID_3_" gradientUnits="userSpaceOnUse" x1="163.3969" y1="330.8693" x2="-27.0033" y2="87.6112">
			<stop  offset="0" style="stop-color:#1B110A"/>
			<stop  offset="0.023" style="stop-color:#1D140D"/>
			<stop  offset="0.2838" style="stop-color:#342F2C"/>
			<stop  offset="0.5382" style="stop-color:#444242"/>
			<stop  offset="0.7811" style="stop-color:#4E4E4F"/>
			<stop  offset="1" style="stop-color:#515254"/>
		</linearGradient>
		<path style="fill:url(#SVGID_3_);" d="M82.995,162.742l-2.925-0.488l-44.577,56.36l0.132-2.483l42.862-54.143l-10.622-1.796
			L40.221,194.98l-3.189-2.439l25.027-33.301l-2.727-0.466c0,0-35.649,44.964-36.11,45.562c-3.519,4.656-2.639,11.285,1.979,14.833
			c1.803,1.397,3.914,2.106,6.004,2.173c1.1,0.022,16.384,0.155,16.384,0.155l15.724-19.888l-11.04-0.266L82.995,162.742z"/>
	</g>
	<g>
		<linearGradient id="SVGID_4_" gradientUnits="userSpaceOnUse" x1="161.6753" y1="331.362" x2="-28.096" y2="88.9075">
			<stop  offset="0" style="stop-color:#1B110A"/>
			<stop  offset="0.023" style="stop-color:#1D140D"/>
			<stop  offset="0.2838" style="stop-color:#342F2C"/>
			<stop  offset="0.5382" style="stop-color:#444242"/>
			<stop  offset="0.7811" style="stop-color:#4E4E4F"/>
			<stop  offset="1" style="stop-color:#515254"/>
		</linearGradient>
		<polygon style="fill:url(#SVGID_4_);" points="88.625,216.22 94.387,236.485 70.064,236.13 86.074,216.22 		"/>
	</g>
	<linearGradient id="SVGID_5_" gradientUnits="userSpaceOnUse" x1="299.0671" y1="221.4483" x2="110.3078" y2="-19.7133">
		<stop  offset="0" style="stop-color:#1B110A"/>
		<stop  offset="0.023" style="stop-color:#1D140D"/>
		<stop  offset="0.2838" style="stop-color:#342F2C"/>
		<stop  offset="0.5382" style="stop-color:#444242"/>
		<stop  offset="0.7811" style="stop-color:#4E4E4F"/>
		<stop  offset="1" style="stop-color:#515254"/>
	</linearGradient>
	<path style="fill:url(#SVGID_5_);" d="M204.126,28.006v-2.328c0-5.676-5.454-10.265-12.184-10.265H99.137
		c-6.73,0-12.184,4.589-12.184,10.265v2.328H204.126z"/>
	<linearGradient id="SVGID_6_" gradientUnits="userSpaceOnUse" x1="304.9012" y1="216.8083" x2="116.1458" y2="-24.3483">
		<stop  offset="0" style="stop-color:#1B110A"/>
		<stop  offset="0.023" style="stop-color:#1D140D"/>
		<stop  offset="0.2838" style="stop-color:#342F2C"/>
		<stop  offset="0.5382" style="stop-color:#444242"/>
		<stop  offset="0.7811" style="stop-color:#4E4E4F"/>
		<stop  offset="1" style="stop-color:#515254"/>
	</linearGradient>
	<path style="fill:url(#SVGID_6_);" d="M176.284,16.411v-1.153c0-2.838-2.727-5.144-6.07-5.144H123.79
		c-3.365,0-6.092,2.306-6.092,5.144v1.153H176.284z"/>
	<g>
		<linearGradient id="SVGID_7_" gradientUnits="userSpaceOnUse" x1="164.6257" y1="329.9378" x2="-25.9952" y2="86.3978">
			<stop  offset="0" style="stop-color:#1B110A"/>
			<stop  offset="0.023" style="stop-color:#1D140D"/>
			<stop  offset="0.2838" style="stop-color:#342F2C"/>
			<stop  offset="0.5382" style="stop-color:#444242"/>
			<stop  offset="0.7811" style="stop-color:#4E4E4F"/>
			<stop  offset="1" style="stop-color:#515254"/>
		</linearGradient>
		<path style="fill:url(#SVGID_7_);" d="M61.795,234.534l25.796-34.1l-2.265-11.95l-29.689,38.312l0.352-5.011l28.809-38.268
			l-0.374-3.569c0,0-31.426,40.973-31.844,41.527c-3.519,4.634-2.617,11.285,1.979,14.833c4.618,3.547,11.194,2.66,14.713-1.995
			c0.418-0.532,19.441-26.384,19.441-26.384l-0.902-5.122l-23.333,30.486L61.795,234.534z"/>
	</g>
	<g>
		<linearGradient id="SVGID_8_" gradientUnits="userSpaceOnUse" x1="238.5794" y1="270.4698" x2="49.0935" y2="28.38">
			<stop  offset="0" style="stop-color:#1B110A"/>
			<stop  offset="0.023" style="stop-color:#1D140D"/>
			<stop  offset="0.2838" style="stop-color:#342F2C"/>
			<stop  offset="0.5382" style="stop-color:#444242"/>
			<stop  offset="0.7811" style="stop-color:#4E4E4F"/>
			<stop  offset="1" style="stop-color:#515254"/>
		</linearGradient>
		<polygon style="fill:url(#SVGID_8_);" points="206.985,217.994 201.223,238.281 225.546,238.281 209.558,217.994 		"/>
	</g>
	<g>
		<linearGradient id="SVGID_9_" gradientUnits="userSpaceOnUse" x1="293.288" y1="226.3751" x2="104.3572" y2="-15.0056">
			<stop  offset="0" style="stop-color:#1B110A"/>
			<stop  offset="0.023" style="stop-color:#1D140D"/>
			<stop  offset="0.2838" style="stop-color:#342F2C"/>
			<stop  offset="0.5382" style="stop-color:#444242"/>
			<stop  offset="0.7811" style="stop-color:#4E4E4F"/>
			<stop  offset="1" style="stop-color:#515254"/>
		</linearGradient>
		<path style="fill:url(#SVGID_9_);" d="M140.548,30.157v15.232h-4.508V30.157h-6.553v15.232h-4.508V30.157h-6.554v15.232h-4.486
			V30.157h-5.828v15.232h-2.815V30.157h-3.299v15.232h-2.067V30.157h-3.233v11.817c0,5.676,4.574,10.287,10.204,10.287h77.653
			c5.63,0,10.204-4.612,10.204-10.287V30.157H140.548z"/>
	</g>
	<linearGradient id="SVGID_10_" gradientUnits="userSpaceOnUse" x1="216.4747" y1="289.8452" x2="25.9702" y2="46.4539">
		<stop  offset="0" style="stop-color:#1B110A"/>
		<stop  offset="0.023" style="stop-color:#1D140D"/>
		<stop  offset="0.2838" style="stop-color:#342F2C"/>
		<stop  offset="0.5382" style="stop-color:#444242"/>
		<stop  offset="0.7811" style="stop-color:#4E4E4F"/>
		<stop  offset="1" style="stop-color:#515254"/>
	</linearGradient>
	<path style="fill:url(#SVGID_10_);" d="M80.532,43.815l-4.596,4.634l-6.246-6.252c-3.431-3.436-9.083-3.326-12.623,0.266
		L44.971,54.723l-4.376-4.39c-1.034-1.042-2.815-0.931-3.981,0.244L23.529,63.836c-1.166,1.175-1.254,2.971-0.22,4.013l4.376,4.39
		L17.02,83.036c-3.541,3.592-3.65,9.29-0.22,12.727l6.114,6.119l-6.355,6.408l5.366,5.343l63.974-64.475L80.532,43.815z
		 M57.902,54.28L30.765,80.641c-5.542,4.9-6.356,7.317-7.741,12.749c-2.683-5.166-2.529-10.199,4.596-16.496L52.8,52.262
		c6.686-5.565,11.216-5.454,16.142-3.459C64.368,50.067,62.301,50.377,57.902,54.28z"/>
	<linearGradient id="SVGID_11_" gradientUnits="userSpaceOnUse" x1="214.3476" y1="289.6568" x2="24.7909" y2="47.4765">
		<stop  offset="0" style="stop-color:#1B110A"/>
		<stop  offset="0.023" style="stop-color:#1D140D"/>
		<stop  offset="0.2838" style="stop-color:#342F2C"/>
		<stop  offset="0.5382" style="stop-color:#444242"/>
		<stop  offset="0.7811" style="stop-color:#4E4E4F"/>
		<stop  offset="1" style="stop-color:#515254"/>
	</linearGradient>
	<path style="fill:url(#SVGID_11_);" d="M146.552,218.149c5.498,2.217,11.722-0.466,13.921-6.008
		c2.199-5.543-0.462-11.817-5.96-14.034c-5.498-2.217-11.721,0.466-13.921,6.009C138.393,209.635,141.054,215.932,146.552,218.149z"
		/>
	<linearGradient id="SVGID_12_" gradientUnits="userSpaceOnUse" x1="250.8642" y1="260.861" x2="61.2895" y2="18.6576">
		<stop  offset="0" style="stop-color:#1B110A"/>
		<stop  offset="0.023" style="stop-color:#1D140D"/>
		<stop  offset="0.2838" style="stop-color:#342F2C"/>
		<stop  offset="0.5382" style="stop-color:#444242"/>
		<stop  offset="0.7811" style="stop-color:#4E4E4F"/>
		<stop  offset="1" style="stop-color:#515254"/>
	</linearGradient>
	<path style="fill:url(#SVGID_12_);" d="M150.224,120.572c-4.244-1.729-9.083,0.355-10.798,4.656
		c-1.693,4.301,0.374,9.179,4.618,10.886c4.266,1.729,9.105-0.377,10.798-4.656C156.558,127.157,154.491,122.28,150.224,120.572z"/>
	<linearGradient id="SVGID_13_" gradientUnits="userSpaceOnUse" x1="245.4441" y1="264.9751" x2="56.0953" y2="23.0603">
		<stop  offset="0" style="stop-color:#1B110A"/>
		<stop  offset="0.023" style="stop-color:#1D140D"/>
		<stop  offset="0.2838" style="stop-color:#342F2C"/>
		<stop  offset="0.5382" style="stop-color:#444242"/>
		<stop  offset="0.7811" style="stop-color:#4E4E4F"/>
		<stop  offset="1" style="stop-color:#515254"/>
	</linearGradient>
	<path style="fill:url(#SVGID_13_);" d="M169.027,137.179c-4.838,12.194-18.561,18.114-30.656,13.236
		c-1.496-0.598-2.925-1.352-4.222-2.217l-0.792,34.72c8.093-5.587,18.693-7.117,28.457-3.17
		c14.097,5.676,21.618,20.863,18.253,35.319l24.983-13.591c3.057-14.145,5.696-29.156,7.213-40.042l-41.609-31.24
		C170.479,132.545,169.951,134.895,169.027,137.179z"/>
	<linearGradient id="SVGID_14_" gradientUnits="userSpaceOnUse" x1="341.9868" y1="188.9648" x2="152.4578" y2="-53.1803">
		<stop  offset="0" style="stop-color:#1B110A"/>
		<stop  offset="0.023" style="stop-color:#1D140D"/>
		<stop  offset="0.2838" style="stop-color:#342F2C"/>
		<stop  offset="0.5382" style="stop-color:#444242"/>
		<stop  offset="0.7811" style="stop-color:#4E4E4F"/>
		<stop  offset="1" style="stop-color:#515254"/>
	</linearGradient>
	<path style="fill:url(#SVGID_14_);" d="M276.193,95.762c3.431-3.437,3.343-9.135-0.198-12.727l-10.666-10.798l4.376-4.39
		c1.034-1.042,0.924-2.838-0.22-4.013l-13.107-13.259c-1.144-1.175-2.925-1.286-3.958-0.244l-4.376,4.39l-12.117-12.261
		c-3.541-3.592-9.193-3.703-12.623-0.266l-6.224,6.252l-4.596-4.634l-5.388,5.343l63.974,64.475l5.388-5.343l-6.355-6.408
		L276.193,95.762z M261.745,80.93l-27.116-26.362c-4.398-3.88-6.466-4.212-11.062-5.476c4.948-1.995,9.479-2.106,16.142,3.459
		l25.181,24.655c7.125,6.297,7.301,11.308,4.618,16.474C268.1,88.268,267.287,85.83,261.745,80.93z"/>
	<linearGradient id="SVGID_15_" gradientUnits="userSpaceOnUse" x1="275.7327" y1="241.2229" x2="86.1652" y2="-0.9713">
		<stop  offset="0" style="stop-color:#1B110A"/>
		<stop  offset="0.023" style="stop-color:#1D140D"/>
		<stop  offset="0.2838" style="stop-color:#342F2C"/>
		<stop  offset="0.5382" style="stop-color:#444242"/>
		<stop  offset="0.7811" style="stop-color:#4E4E4F"/>
		<stop  offset="1" style="stop-color:#515254"/>
	</linearGradient>
	<path style="fill:url(#SVGID_15_);" d="M234.981,167.155c8.005,3.237,11.898,12.394,8.687,20.442
		c-3.211,8.07-12.271,11.995-20.276,8.758s-11.876-12.372-8.687-20.442C217.915,167.842,226.998,163.94,234.981,167.155z
		 M222.05,178.883c-1.584,3.969,0.33,8.47,4.288,10.066c3.936,1.596,8.401-0.333,9.984-4.323c1.583-3.969-0.33-8.47-4.267-10.066
		C228.097,172.964,223.633,174.892,222.05,178.883z"/>
	<g>
		<linearGradient id="SVGID_16_" gradientUnits="userSpaceOnUse" x1="253.7268" y1="258.8241" x2="63.9501" y2="16.3626">
			<stop  offset="0" style="stop-color:#1B110A"/>
			<stop  offset="0.023" style="stop-color:#1D140D"/>
			<stop  offset="0.2838" style="stop-color:#342F2C"/>
			<stop  offset="0.5382" style="stop-color:#444242"/>
			<stop  offset="0.7811" style="stop-color:#4E4E4F"/>
			<stop  offset="1" style="stop-color:#515254"/>
		</linearGradient>
		<path style="fill:url(#SVGID_16_);" d="M165.487,126.337c-0.66-4.989-3.233-9.423-7.191-12.46
			c-3.673-2.816-8.203-4.146-12.777-3.791l0.308,3.991c3.607-0.288,7.169,0.776,10.05,2.993c3.145,2.395,5.146,5.875,5.674,9.8
			c0.528,3.925-0.484,7.827-2.859,10.975c-2.617,3.481-6.619,5.609-10.952,5.831l0.22,4.013c5.498-0.288,10.556-2.993,13.899-7.405
			C164.871,136.27,166.168,131.325,165.487,126.337z"/>
		<linearGradient id="SVGID_17_" gradientUnits="userSpaceOnUse" x1="248.594" y1="262.8209" x2="58.9377" y2="20.5133">
			<stop  offset="0" style="stop-color:#1B110A"/>
			<stop  offset="0.023" style="stop-color:#1D140D"/>
			<stop  offset="0.2838" style="stop-color:#342F2C"/>
			<stop  offset="0.5382" style="stop-color:#444242"/>
			<stop  offset="0.7811" style="stop-color:#4E4E4F"/>
			<stop  offset="1" style="stop-color:#515254"/>
		</linearGradient>
		<path style="fill:url(#SVGID_17_);" d="M259.282,112.746l0.11-0.133l-53-53.433l-12.645,12.682
			c-1.055-5.498-5.564-9.644-10.952-9.644h-12.689v11.352h-10.732V62.217h-23.751v10.908H123.13V62.217h-10.138
			c-6.18,0-11.172,5.432-11.172,12.128v0.067L86.624,59.179l-57.421,58.045l11.26,11.086l4.332-4.456l5.19,5.188l-4.464,4.612
			l11.26,11.108l4.354-4.523l5.19,5.21l-4.508,4.656l11.26,11.086l5.696-5.875c1.056,0.244,2.221,0.488,3.453,0.665
			c2.683,22.681,12.887,75.671,20.299,85.005h41.63h6.884h41.63c2.969-3.725,6.356-14.345,9.544-27.227l-31.36,17.05
			c-8.313,7.583-20.496,10.177-31.602,5.698c-15.548-6.275-23.091-24.078-16.868-39.754c0.396-1.02,0.858-1.995,1.341-2.927
			l1.297-57.224c-1.957-5.344-2.045-11.396,0.22-17.094c4.838-12.194,18.583-18.136,30.678-13.236
			c4.838,1.951,8.665,5.343,11.238,9.489l55.969,42.015l7.917-7.716l-4.442-4.545l5.168-5.188l4.288,4.434l11.26-11.108
			l-4.376-4.523l5.168-5.188l4.267,4.368l11.238-11.086L259.282,112.746z M62.983,116.714L50.051,103.7l26.676-26.916l12.953,13.015
			L62.983,116.714z M104.569,166.068c-4.574,0-8.313-3.747-8.313-8.381c0-4.612,3.739-8.381,8.313-8.381
			c4.596,0,8.313,3.769,8.313,8.381C112.882,162.321,109.165,166.068,104.569,166.068z M181.255,109.243
			c-3.299,0-5.96-2.683-5.96-5.986c0-3.326,2.661-6.009,5.96-6.009c3.299,0,5.96,2.683,5.96,6.009
			C187.214,106.56,184.553,109.243,181.255,109.243z M230.868,115.872L204.17,88.956l12.096-12.172l26.698,26.916L230.868,115.872z"
			/>
		<linearGradient id="SVGID_18_" gradientUnits="userSpaceOnUse" x1="206.4989" y1="295.796" x2="16.953" y2="53.6295">
			<stop  offset="0" style="stop-color:#1B110A"/>
			<stop  offset="0.023" style="stop-color:#1D140D"/>
			<stop  offset="0.2838" style="stop-color:#342F2C"/>
			<stop  offset="0.5382" style="stop-color:#444242"/>
			<stop  offset="0.7811" style="stop-color:#4E4E4F"/>
			<stop  offset="1" style="stop-color:#515254"/>
		</linearGradient>
		<path style="fill:url(#SVGID_18_);" d="M140.548,196.377l-3.431-4.08c-4.706,4.035-7.411,9.911-7.411,16.141
			c0,11.64,9.39,21.129,20.958,21.129c5.146,0,10.116-1.907,13.943-5.366l-3.519-3.991c-2.881,2.594-6.576,4.013-10.424,4.013
			c-8.643,0-15.658-7.073-15.658-15.786C135.006,203.782,137.007,199.392,140.548,196.377z"/>
	</g>
	<g>
		<linearGradient id="SVGID_19_" gradientUnits="userSpaceOnUse" x1="279.7887" y1="238.0107" x2="90.1101" y2="-4.3255">
			<stop  offset="0" style="stop-color:#1B110A"/>
			<stop  offset="0.023" style="stop-color:#1D140D"/>
			<stop  offset="0.2838" style="stop-color:#342F2C"/>
			<stop  offset="0.5382" style="stop-color:#444242"/>
			<stop  offset="0.7811" style="stop-color:#4E4E4F"/>
			<stop  offset="1" style="stop-color:#515254"/>
		</linearGradient>
		<path style="fill:url(#SVGID_19_);" d="M272.411,204.336c-0.352-0.443-17.528-20.22-25.885-29.865
			c0.594,1.485,0.99,3.038,1.188,4.634l21.728,25.896l1.276,5.366l-22.937-26.872c-0.176,1.729-0.594,3.436-1.254,5.121
			c-0.638,1.574-1.451,3.038-2.419,4.323l21.222,24.921l-4.486-0.665l-18.737-21.95c-0.748,0.709-1.539,1.375-2.397,1.973
			l3.629,4.124l-9.347,0.222c-0.506,0.111-1.012,0.178-1.517,0.244l15.57,19.688c0,0,15.284-0.133,16.362-0.155
			c2.111-0.067,4.222-0.776,6.026-2.173C275.028,215.621,275.907,208.992,272.411,204.336z"/>
		<linearGradient id="SVGID_20_" gradientUnits="userSpaceOnUse" x1="256.8874" y1="256.0616" x2="67.5003" y2="14.098">
			<stop  offset="0" style="stop-color:#1B110A"/>
			<stop  offset="0.023" style="stop-color:#1D140D"/>
			<stop  offset="0.2838" style="stop-color:#342F2C"/>
			<stop  offset="0.5382" style="stop-color:#444242"/>
			<stop  offset="0.7811" style="stop-color:#4E4E4F"/>
			<stop  offset="1" style="stop-color:#515254"/>
		</linearGradient>
		<path style="fill:url(#SVGID_20_);" d="M226.91,200.478c-0.088,0-0.176-0.022-0.242-0.044l-3.277,1.84l14.998,19.666l0.352,5.166
			l-18.143-23.258l-11.787,6.607l4.376,6.141c0,0,12.755,17.183,13.151,17.715c3.519,4.656,10.116,5.543,14.713,1.995
			c4.618-3.547,5.498-10.199,1.979-14.833C242.832,221.186,234.783,210.721,226.91,200.478z"/>
	</g>
</g>
</svg>
