<?xml version="1.0" encoding="iso-8859-1"?>
<!-- Generator: Adobe Illustrator 19.1.0, SVG Export Plug-In . SVG Version: 6.00 Build 0)  -->
<svg version="1.1" id="Layer_1" xmlns="http://www.w3.org/2000/svg" xmlns:xlink="http://www.w3.org/1999/xlink" x="0px" y="0px"
	 viewBox="0 0 248 134.313" style="enable-background:new 0 0 248 134.313;" xml:space="preserve">
<g id="jit88f.tif_1_">
	<g>
		<path style="fill:#FFFFFF;" d="M230.05,73.086c-20.054-0.006-40.109-0.024-60.163,0.03c-1.708,0.005-2.301-0.37-2.282-2.204
			c0.097-9.161,0.045-18.324,0.044-27.486v-2.433H77.056v2.241c0,9.226-0.053,18.453,0.045,27.678
			c0.019,1.835-0.575,2.209-2.282,2.204c-20.054-0.054-40.109-0.036-60.163-0.03c-0.7,0-1.399,0.068-2.099,0.105v60.008
			c13.472-1.723,26.954-3.277,40.544-4.026c20.739-1.143,41.545-0.483,62.178,1.911c10.285,1.194,20.445,2.149,30.625,2.707
			c5.59-1.118,11.258-1.698,16.99-1.249c0.921,0.072,1.504,0.978,1.477,1.77c4.11,0.009,8.232-0.039,12.386-0.198
			c18.469-0.709,36.909-2.058,55.393-2.278V73.19C231.449,73.154,230.749,73.086,230.05,73.086z M24.029,115.763
			c-5.058-0.01-9.304-4.4-9.413-9.734c-0.11-5.356,4.167-9.847,9.392-9.864c5.091-0.016,9.272,4.374,9.279,9.744
			C33.293,111.192,28.99,115.773,24.029,115.763z M56.239,113.034c-1.785,2.418-4.582,3.165-7.886,2.11
			c-0.179-0.057-0.369-0.075-0.842-0.168c0,1.431,0.183,2.742-0.071,3.961c-0.144,0.693-1.002,1.238-1.539,1.849
			c-0.508-0.61-1.441-1.21-1.456-1.832c-0.118-5.051-0.1-10.106-0.043-15.159c0.018-1.593,0.967-2.028,2.483-1.402
			c0.456,0.188,1.06,0.281,1.52,0.151c3.448-0.978,6.134-0.194,7.973,2.406C58.042,107.303,57.984,110.67,56.239,113.034z
			 M77.695,109.997C75.398,110.009,73.1,110,70.603,110c0.809,2.173,2.533,3.161,4.406,2.692c0.549-0.137,1.046-0.573,1.589-0.621
			c0.726-0.064,1.474,0.117,2.213,0.192c-0.282,0.737-0.347,1.754-0.88,2.166c-3.679,2.84-9.151,0.937-10.519-3.567
			c-1.117-3.678,0.998-7.531,4.713-8.59c3.363-0.958,6.98,1.09,7.974,4.517C80.791,109.173,80.19,109.984,77.695,109.997z
			 M102.049,113.886c-0.057,0.649-0.98,1.222-1.507,1.829c-0.483-0.638-1.309-1.24-1.382-1.922
			c-0.195-1.838-0.046-3.709-0.074-5.567c-0.028-1.825-1.143-3.094-2.678-3.116c-1.526-0.022-2.651,1.222-2.702,3.108
			c-0.05,1.857,0.113,3.729-0.078,5.567c-0.071,0.684-0.803,1.739-1.371,1.837c-1.117,0.194-1.621-0.719-1.601-1.861
			c0.029-1.665,0.007-3.332,0.007-4.998c0-1.602-0.041-3.205,0.011-4.805c0.053-1.627,0.854-2.118,2.372-1.647
			c0.484,0.15,1.083,0.179,1.567,0.044c3.676-1.029,7.178,1.229,7.468,5.004C102.249,109.525,102.238,111.724,102.049,113.886z
			 M128.242,114.208c-3.357,1.911-6.799,2.109-10.224,0.234c-3.296-1.805-4.959-4.663-5.128-7.95
			c0.061-4.327,1.765-7.251,5.123-9.078c3.477-1.891,6.996-1.712,10.39,0.33c0.996,0.599,1.842,1.408,1.018,2.644
			c-0.813,1.219-1.798,0.73-2.821,0.105c-3.016-1.844-6.728-1.319-8.886,1.181c-2.068,2.396-2.133,5.861-0.157,8.288
			c2.191,2.691,5.799,3.281,9.004,1.409c1.025-0.599,2.071-1.078,2.857,0.099C130.305,112.8,129.296,113.607,128.242,114.208z
			 M131.091,68.536c-2.356,1.143-5.009,1.675-7.528,2.482c-0.063-0.162-0.126-0.324-0.189-0.487
			c-6.329-0.053-11.196-3.115-15.357-7.573c-0.958-1.026-1.81-2.161-2.63-3.304c-1.138-1.588-1.034-2.775,0.214-3.685
			c1.272-0.927,2.849-0.548,3.998,0.852c1.216,1.482,2.39,3.031,3.794,4.32c7.386,6.781,16.062,5.558,21.406-2.952
			c0.475-0.757,0.914-1.542,1.31-2.343c0.682-1.379,1.724-1.863,3.15-1.271c1.377,0.572,2.008,2.106,1.35,3.527
			C138.538,62.572,135.585,66.356,131.091,68.536z M147.329,105.018c-2.229,0.713-3.816,2.581-3.905,5.033
			c-0.047,1.275,0.156,2.584-0.079,3.816c-0.13,0.682-0.932,1.235-1.431,1.847c-0.519-0.552-1.463-1.086-1.486-1.659
			c-0.141-3.44-0.121-6.89-0.02-10.333c0.016-0.539,0.674-1.443,1.117-1.497c0.677-0.082,1.426,0.43,2.33,0.757
			c0.962-0.278,2.044-0.793,3.141-0.826c0.58-0.018,1.186,0.802,1.78,1.244C148.299,103.958,147.923,104.828,147.329,105.018z
			 M169.347,113.333c-0.019,2.26-0.765,2.708-2.746,1.789c-0.323-0.15-0.816-0.097-1.176,0.024
			c-3.257,1.095-6.043,0.348-7.833-2.141c-1.782-2.476-1.65-6.206,0.303-8.576c1.947-2.363,4.668-2.927,7.81-1.641
			c1.195-0.267,2.205-0.802,2.625-0.505c0.577,0.409,0.95,1.444,0.979,2.227C169.419,107.448,169.372,110.392,169.347,113.333z
			 M185.637,101.083c0.618,0.672,1.69,1.324,1.721,2.022c0.029,0.647-1.055,1.344-1.649,2.018c-0.162-0.1-0.323-0.199-0.485-0.299
			c0,2.675,0.009,5.351-0.004,8.026c-0.006,1.183,0.295,2.705-1.493,2.758c-1.821,0.054-1.565-1.449-1.565-2.65
			c0-2.677,0-5.355,0-7.457c-0.984-1.005-2.089-1.632-2.128-2.318c-0.037-0.657,1.036-1.376,1.809-1.863
			c0.385-1.117,0.51-2.459,1.23-3.283c0.655-0.751,1.928-1.159,2.981-1.286c0.534-0.064,1.427,0.722,1.681,1.324
			c0.135,0.321-0.688,1.126-1.181,1.609c-0.442,0.434-1.023,0.726-1.542,1.08C185.219,100.871,185.428,100.977,185.637,101.083z
			 M200.607,105.894c0,1.43-0.059,3.477,0.042,5.516c0.025,0.507,0.637,0.961,0.848,1.491c0.24,0.602,0.654,1.475,0.409,1.845
			c-0.329,0.498-1.266,0.948-1.853,0.855c-1.645-0.259-2.524-1.364-2.512-3.102c0.016-2.367,0.004-4.735,0.004-6.428
			c-1.017-1.109-2.083-1.762-2.152-2.508c-0.055-0.589,1.115-1.293,1.741-1.945c0.137,0.088,0.274,0.176,0.411,0.264
			c0-1.019,0.026-2.039-0.007-3.057c-0.037-1.148,0.185-2.138,1.58-2.107c1.409,0.031,1.528,1.081,1.495,2.193
			c-0.029,0.957-0.006,1.915-0.006,2.873l0.387-0.239c0.621,0.735,1.55,1.4,1.736,2.232
			C202.826,104.211,201.611,104.937,200.607,105.894z M224.116,114.973c-2.812,0.048-5.627,0.055-8.439,0
			c-1.137-0.022-1.999-0.579-1.961-1.875c0.037-1.278,0.879-1.768,2.044-1.788c1.406-0.025,2.813-0.006,4.22-0.006
			c1.343,0,2.685-0.009,4.028,0.002c1.185,0.01,2.002,0.524,2.05,1.785C226.107,114.377,225.274,114.953,224.116,114.973z"/>
		<path d="M232.148,73.19c-0.7-0.036-1.399-0.105-2.099-0.105c-20.054-0.006-40.109-0.024-60.163,0.03
			c-1.708,0.005-2.301-0.37-2.282-2.204c0.098-9.161,0.045-18.324,0.045-27.486c0-0.764,0-1.527,0-2.433c-30.188,0-60.26,0-90.594,0
			c0,0.756,0,1.498,0,2.241c0,9.226-0.053,18.453,0.045,27.678c0.019,1.835-0.575,2.209-2.282,2.204
			c-20.054-0.054-40.109-0.036-60.163-0.03c-0.7,0-1.399,0.068-2.098,0.105c0-20.864,0-41.727,0-62.686c21.536,0,43.072,0,64.608,0
			c0,8.161,0,16.321,0,24.49c30.232,0,60.293,0,90.375,0c0-8.25,0-16.37,0-24.49c21.536,0,43.072,0,64.608,0
			C232.148,31.4,232.148,52.295,232.148,73.19z M173.411,16.329c0,0.843,0,1.473,0,2.103c0,15.569,0.031,31.137-0.042,46.705
			c-0.008,1.799,0.523,2.226,2.258,2.22c16.209-0.063,32.418-0.037,48.628-0.037c0.675,0,1.351,0,1.997,0c0-17.184,0-34.065,0-50.99
			C208.641,16.329,191.164,16.329,173.411,16.329z M71.294,16.374c-17.772,0-35.292,0-52.867,0c0,16.985,0,33.862,0,50.836
			c0.467,0.041,0.839,0.103,1.212,0.103c16.658,0.005,33.315-0.016,49.973,0.04c1.617,0.005,1.702-0.729,1.7-1.982
			c-0.027-15.761-0.018-31.521-0.018-47.282C71.294,17.585,71.294,17.081,71.294,16.374z"/>
		<path style="fill:#FFFFFF;" d="M167.54,10.505c0,8.12,0,16.24,0,24.49c-30.082,0-60.143,0-90.375,0c0-8.168,0-16.329,0-24.49
			C107.29,10.505,137.415,10.505,167.54,10.505z"/>
		<path d="M123.374,70.531c-6.329-0.053-11.196-3.115-15.357-7.573c-0.958-1.026-1.81-2.161-2.63-3.304
			c-1.138-1.588-1.034-2.775,0.214-3.685c1.272-0.927,2.849-0.548,3.998,0.852c1.216,1.482,2.39,3.031,3.794,4.32
			c7.386,6.781,16.062,5.558,21.406-2.952c0.475-0.757,0.914-1.542,1.31-2.343c0.682-1.379,1.724-1.863,3.15-1.271
			c1.377,0.572,2.008,2.106,1.35,3.527c-2.071,4.47-5.025,8.255-9.518,10.434c-2.356,1.143-5.009,1.675-7.528,2.482
			C123.5,70.856,123.437,70.694,123.374,70.531z"/>
		<path d="M24.007,96.166c5.091-0.016,9.272,4.374,9.279,9.743c0.007,5.283-4.296,9.864-9.257,9.854
			c-5.058-0.009-9.304-4.4-9.413-9.734C14.506,100.674,18.782,96.183,24.007,96.166z M29.969,105.91
			c-0.007-3.581-2.65-6.527-5.898-6.573c-3.299-0.046-6.153,2.996-6.159,6.567c-0.006,3.587,2.809,6.584,6.15,6.546
			C27.329,112.414,29.976,109.483,29.969,105.91z"/>
		<path d="M47.511,114.975c0,1.432,0.183,2.742-0.071,3.961c-0.144,0.693-1.002,1.238-1.539,1.849
			c-0.508-0.61-1.441-1.21-1.456-1.832c-0.118-5.051-0.1-10.106-0.043-15.159c0.018-1.593,0.967-2.028,2.483-1.402
			c0.456,0.188,1.06,0.281,1.52,0.151c3.448-0.978,6.134-0.194,7.973,2.406c1.664,2.353,1.606,5.72-0.139,8.084
			c-1.785,2.418-4.582,3.165-7.886,2.11C48.174,115.087,47.983,115.068,47.511,114.975z M50.882,105.115
			c-1.903,0.067-3.411,1.825-3.366,3.924c0.045,2.081,1.723,3.756,3.636,3.63c1.807-0.119,3.366-1.894,3.342-3.804
			C54.47,106.882,52.705,105.05,50.882,105.115z"/>
		<path d="M112.89,106.491c0.061-4.327,1.765-7.251,5.123-9.078c3.477-1.892,6.996-1.712,10.39,0.33
			c0.996,0.599,1.842,1.408,1.018,2.644c-0.813,1.219-1.798,0.73-2.821,0.105c-3.017-1.844-6.728-1.319-8.886,1.181
			c-2.068,2.396-2.133,5.861-0.157,8.288c2.191,2.691,5.799,3.281,9.004,1.409c1.025-0.599,2.071-1.079,2.857,0.099
			c0.888,1.331-0.12,2.138-1.175,2.738c-3.357,1.912-6.799,2.109-10.224,0.234C114.722,112.636,113.058,109.779,112.89,106.491z"/>
		<path d="M165.694,102.791c1.2-0.266,2.214-0.805,2.636-0.507c0.577,0.409,0.95,1.444,0.979,2.227
			c0.11,2.937,0.063,5.881,0.038,8.822c-0.019,2.26-0.765,2.708-2.746,1.789c-0.323-0.15-0.816-0.097-1.176,0.024
			c-3.257,1.095-6.043,0.348-7.833-2.141c-1.782-2.476-1.65-6.206,0.303-8.576c1.976-2.399,4.748-2.953,7.95-1.591
			C165.958,102.887,166.08,102.916,165.694,102.791z M162.738,105.106c-1.906,0.037-3.354,1.751-3.311,3.919
			c0.042,2.1,1.486,3.651,3.39,3.639c1.964-0.012,3.484-1.687,3.462-3.814C166.258,106.754,164.663,105.068,162.738,105.106z"/>
		<path d="M70.603,110c0.809,2.173,2.533,3.161,4.406,2.692c0.549-0.137,1.046-0.574,1.589-0.622
			c0.726-0.064,1.474,0.117,2.213,0.192c-0.282,0.737-0.347,1.754-0.881,2.166c-3.679,2.84-9.151,0.937-10.519-3.567
			c-1.117-3.677,0.998-7.531,4.713-8.59c3.363-0.958,6.98,1.09,7.974,4.517c0.692,2.384,0.091,3.196-2.405,3.209
			C75.398,110.009,73.1,110,70.603,110z M77.692,107.454c-1.137-1.88-2.504-2.752-4.261-2.603c-1.412,0.119-2.607,0.838-3.02,2.523
			c0.492,0.032,0.861,0.076,1.23,0.078C73.536,107.458,75.431,107.454,77.692,107.454z"/>
		<path d="M90.664,108.763c0-1.602-0.041-3.205,0.011-4.805c0.053-1.627,0.854-2.118,2.372-1.647
			c0.484,0.15,1.083,0.179,1.567,0.044c3.676-1.029,7.178,1.229,7.468,5.004c0.166,2.166,0.155,4.365-0.033,6.527
			c-0.057,0.649-0.98,1.222-1.507,1.83c-0.483-0.638-1.309-1.24-1.382-1.922c-0.195-1.838-0.046-3.71-0.074-5.567
			c-0.028-1.825-1.143-3.094-2.678-3.116c-1.526-0.022-2.651,1.222-2.702,3.108c-0.05,1.857,0.113,3.729-0.078,5.567
			c-0.071,0.684-0.803,1.738-1.371,1.837c-1.117,0.194-1.621-0.719-1.601-1.861C90.685,112.096,90.664,110.429,90.664,108.763z"/>
		<path d="M185.637,101.083c0.618,0.672,1.69,1.324,1.721,2.022c0.029,0.647-1.055,1.344-1.649,2.018
			c-0.162-0.1-0.323-0.199-0.485-0.299c0,2.675,0.009,5.351-0.004,8.026c-0.006,1.183,0.295,2.705-1.493,2.758
			c-1.821,0.054-1.565-1.449-1.565-2.65c0-2.678,0-5.355,0-7.457c-0.984-1.005-2.089-1.632-2.128-2.318
			c-0.037-0.657,1.036-1.376,1.809-1.863c0.384-1.117,0.51-2.459,1.23-3.283c0.655-0.751,1.928-1.159,2.981-1.286
			c0.534-0.064,1.427,0.722,1.681,1.324c0.135,0.321-0.688,1.126-1.181,1.609c-0.442,0.434-1.023,0.726-1.542,1.08
			C185.219,100.871,185.428,100.977,185.637,101.083z"/>
		<path d="M200.993,101.546c0.621,0.735,1.55,1.4,1.736,2.232c0.097,0.433-1.118,1.159-2.122,2.116c0,1.43-0.059,3.477,0.042,5.516
			c0.025,0.507,0.637,0.961,0.848,1.491c0.24,0.602,0.654,1.475,0.409,1.845c-0.329,0.498-1.266,0.948-1.853,0.855
			c-1.645-0.259-2.524-1.364-2.512-3.102c0.016-2.367,0.004-4.735,0.004-6.428c-1.017-1.109-2.083-1.762-2.152-2.508
			c-0.055-0.589,1.115-1.293,1.741-1.945c0.137,0.088,0.274,0.176,0.411,0.264c0-1.019,0.026-2.039-0.007-3.057
			c-0.037-1.148,0.185-2.138,1.58-2.107c1.409,0.031,1.528,1.081,1.495,2.192c-0.029,0.957-0.006,1.915-0.006,2.873
			C200.735,101.705,200.864,101.625,200.993,101.546z"/>
		<path d="M143.854,102.982c0.962-0.278,2.044-0.793,3.141-0.826c0.58-0.018,1.186,0.802,1.78,1.244
			c-0.476,0.558-0.852,1.429-1.446,1.619c-2.229,0.713-3.816,2.581-3.905,5.033c-0.047,1.275,0.156,2.584-0.079,3.816
			c-0.13,0.682-0.932,1.235-1.431,1.847c-0.519-0.552-1.463-1.086-1.486-1.659c-0.141-3.44-0.121-6.89-0.02-10.333
			c0.016-0.539,0.674-1.444,1.117-1.497C142.202,102.142,142.951,102.655,143.854,102.982z"/>
		<path d="M219.979,111.304c1.343,0,2.685-0.008,4.028,0.002c1.185,0.01,2.002,0.524,2.05,1.785
			c0.049,1.286-0.784,1.862-1.942,1.882c-2.812,0.048-5.627,0.055-8.439,0c-1.137-0.022-1.999-0.579-1.961-1.875
			c0.037-1.278,0.879-1.768,2.044-1.788C217.166,111.286,218.573,111.304,219.979,111.304z"/>
		<path style="fill:#FFFFFF;" d="M173.411,16.329c17.754,0,35.23,0,52.841,0c0,16.926,0,33.806,0,50.99c-0.646,0-1.322,0-1.997,0
			c-16.209,0-32.419-0.026-48.628,0.037c-1.735,0.007-2.267-0.42-2.258-2.22c0.072-15.568,0.042-31.137,0.042-46.705
			C173.411,17.802,173.411,17.172,173.411,16.329z M206.736,46.959c0-3.514,0-6.87,0-10.275c-3.486,0-6.839,0-10.231,0
			c0,3.489,0,6.846,0,10.275C199.93,46.959,203.241,46.959,206.736,46.959z"/>
		<path style="fill:#FFFFFF;" d="M71.294,16.374c0,0.707,0,1.211,0,1.715c0,15.761-0.009,31.522,0.018,47.282
			c0.002,1.253-0.083,1.987-1.7,1.982c-16.658-0.056-33.315-0.035-49.973-0.04c-0.373,0-0.745-0.062-1.212-0.103
			c0-16.974,0-33.851,0-50.836C36.002,16.374,53.522,16.374,71.294,16.374z M52.545,35.68c-3.552,0-6.907,0-10.275,0
			c0,3.514,0,6.886,0,10.361c3.452,0,6.809,0,10.275,0C52.545,42.552,52.545,39.181,52.545,35.68z"/>
		<path style="fill:#FFFFFF;" d="M29.969,105.91c0.007,3.573-2.64,6.503-5.907,6.54c-3.341,0.038-6.157-2.96-6.15-6.546
			c0.006-3.571,2.86-6.613,6.159-6.567C27.319,99.383,29.962,102.329,29.969,105.91z"/>
		<path style="fill:#FFFFFF;" d="M50.882,105.115c1.823-0.064,3.587,1.767,3.612,3.75c0.024,1.91-1.535,3.686-3.342,3.804
			c-1.914,0.126-3.591-1.549-3.636-3.63C47.472,106.94,48.979,105.182,50.882,105.115z"/>
		<path style="fill:#FFFFFF;" d="M162.738,105.106c1.925-0.037,3.519,1.648,3.541,3.745c0.022,2.127-1.498,3.801-3.462,3.814
			c-1.903,0.012-3.348-1.539-3.39-3.639C159.384,106.857,160.832,105.143,162.738,105.106z"/>
		<path style="fill:#FFFFFF;" d="M77.692,107.454c-2.261,0-4.156,0.004-6.051-0.003c-0.369-0.001-0.737-0.045-1.23-0.078
			c0.413-1.685,1.608-2.403,3.02-2.523C75.188,104.702,76.555,105.574,77.692,107.454z"/>
		<path d="M206.736,46.959c-3.495,0-6.806,0-10.231,0c0-3.429,0-6.787,0-10.275c3.392,0,6.744,0,10.231,0
			C206.736,40.089,206.736,43.445,206.736,46.959z"/>
		<path d="M52.545,35.68c0,3.501,0,6.872,0,10.361c-3.466,0-6.823,0-10.275,0c0-3.475,0-6.847,0-10.361
			C45.638,35.68,48.993,35.68,52.545,35.68z"/>
	</g>
</g>
</svg>
